<svg version="1.1" id="Layer_1" xmlns="http://www.w3.org/2000/svg" xmlns:xlink="http://www.w3.org/1999/xlink" x="0px" y="0px"
	 width="100%" viewBox="0 0 2004 1692" enable-background="new 0 0 2004 1692" xml:space="preserve">
<path fill="#5B4ECB" opacity="1.000000" stroke="none" 
	d="
M862.000000,1693.000000 
	C844.645752,1693.000000 827.291565,1693.000000 809.143677,1692.737305 
	C799.907410,1691.995850 791.447632,1691.717041 783.025574,1690.996460 
	C765.362061,1689.485229 747.583557,1688.611328 730.096985,1685.898193 
	C700.794006,1681.351807 671.515747,1676.347290 642.532593,1670.114624 
	C606.783142,1662.426880 571.898071,1651.304199 538.014526,1637.623657 
	C510.938995,1626.691772 484.639130,1613.838867 457.938904,1601.560547 
	C456.948059,1600.801392 456.013245,1600.320068 454.745422,1599.741211 
	C449.899353,1597.300659 445.386292,1594.957886 440.814362,1592.362305 
	C440.151428,1591.771240 439.547394,1591.432983 438.597473,1591.017822 
	C435.803375,1589.646851 433.355164,1588.352783 430.952972,1586.807617 
	C430.151337,1586.063232 429.303711,1585.569702 428.174011,1585.069092 
	C426.902161,1584.570679 425.912354,1584.079468 424.761475,1583.242920 
	C423.554016,1582.286743 422.507629,1581.676025 421.175598,1581.056152 
	C420.228638,1580.717407 419.567383,1580.387817 418.984131,1579.864136 
	C418.400391,1579.392822 417.738647,1579.115723 416.760803,1578.759033 
	C415.294403,1578.065796 414.144104,1577.452393 412.896851,1576.507324 
	C411.685760,1575.473877 410.571594,1574.772217 409.249786,1574.079468 
	C408.664398,1573.925049 408.286621,1573.761597 407.780670,1573.270508 
	C406.747681,1572.325195 405.842865,1571.707397 404.939026,1571.128418 
	C404.940033,1571.167480 404.862000,1571.169800 404.693634,1570.862793 
	C403.503540,1570.060303 402.481842,1569.564575 401.252258,1569.078369 
	C400.665863,1568.924683 400.287384,1568.761475 399.780701,1568.270508 
	C398.747742,1567.325073 397.842926,1566.707275 396.939087,1566.128418 
	C396.940033,1566.167480 396.862000,1566.169800 396.693634,1565.862793 
	C395.503540,1565.060303 394.481842,1564.564575 393.252014,1564.077881 
	C392.666656,1563.920288 392.289398,1563.753784 391.797302,1563.270996 
	C391.071411,1562.346436 390.460327,1561.738037 389.883392,1561.136719 
	C389.917511,1561.143677 389.900269,1561.211060 389.724243,1560.941528 
	C388.642517,1560.180542 387.736816,1559.689087 386.854004,1559.172119 
	C386.876892,1559.146729 386.900269,1559.211060 386.724243,1558.941528 
	C385.642548,1558.180542 384.736847,1557.689087 383.855530,1557.174805 
	C383.879913,1557.151978 383.906250,1557.213379 383.712769,1556.933838 
	C382.326050,1556.136719 381.132782,1555.619141 379.931946,1555.142822 
	C379.924438,1555.184204 379.841614,1555.169556 379.730957,1554.891846 
	C379.023682,1554.129028 378.427032,1553.643921 377.863281,1553.151123 
	C377.896210,1553.143555 377.900269,1553.211060 377.724243,1552.941528 
	C376.642517,1552.180542 375.736816,1551.689087 374.854004,1551.172119 
	C374.876892,1551.146729 374.900269,1551.211060 374.724243,1550.941528 
	C373.642487,1550.180542 372.736786,1549.689087 371.854004,1549.172119 
	C371.876892,1549.146729 371.900269,1549.211060 371.724243,1548.941528 
	C370.642548,1548.180542 369.736847,1547.689087 368.854004,1547.172119 
	C368.876892,1547.146729 368.900269,1547.211060 368.724243,1546.941528 
	C367.642517,1546.180542 366.736816,1545.689087 365.854004,1545.172119 
	C365.876892,1545.146729 365.900269,1545.211060 365.724243,1544.941528 
	C364.642548,1544.180542 363.736847,1543.689087 362.862122,1543.171631 
	C362.893127,1543.145752 362.882904,1543.225952 362.727356,1542.926514 
	C361.317352,1541.822876 360.062897,1541.018555 358.830505,1540.187988 
	C358.852600,1540.161865 358.900269,1540.211060 358.724243,1539.941528 
	C357.642548,1539.180542 356.736847,1538.689087 355.862122,1538.171631 
	C355.893127,1538.145752 355.882904,1538.225952 355.727386,1537.926514 
	C354.317413,1536.822754 353.062958,1536.018433 351.831451,1535.189453 
	C351.854401,1535.164795 351.882904,1535.225952 351.727386,1534.926514 
	C350.317413,1533.822754 349.062958,1533.018433 347.832703,1532.188843 
	C347.856934,1532.163452 347.906250,1532.213379 347.712769,1531.933838 
	C346.326050,1531.136841 345.132782,1530.619141 343.927917,1530.162842 
	C343.916351,1530.224121 343.793671,1530.201416 343.721069,1529.863770 
	C342.407684,1528.723145 341.166870,1527.920288 339.913910,1527.171387 
	C339.901733,1527.225342 339.793671,1527.201416 339.721069,1526.863770 
	C338.407654,1525.723267 337.166870,1524.920410 335.911987,1524.173096 
	C335.897858,1524.228760 335.786407,1524.200928 335.726715,1523.852051 
	C334.086853,1522.374756 332.506683,1521.246216 330.914124,1520.171753 
	C330.901733,1520.225830 330.793671,1520.201416 330.721100,1519.863770 
	C329.407715,1518.723145 328.166931,1517.920288 326.911987,1517.173096 
	C326.897858,1517.228760 326.786407,1517.200928 326.726685,1516.852051 
	C325.086792,1515.374756 323.506622,1514.246338 321.912170,1513.173462 
	C321.897858,1513.229126 321.786407,1513.200928 321.726685,1512.852051 
	C320.086792,1511.374756 318.506622,1510.246338 316.912170,1509.173462 
	C316.897858,1509.229126 316.786407,1509.200928 316.726685,1508.852051 
	C315.086761,1507.374878 313.506592,1506.246338 311.912140,1505.173462 
	C311.897858,1505.229126 311.786407,1505.200928 311.726685,1504.852051 
	C310.086823,1503.374756 308.506653,1502.246216 306.911224,1501.173462 
	C306.895966,1501.229126 306.784546,1501.198975 306.730042,1500.853516 
	C304.717468,1498.743896 302.759399,1496.979614 300.824707,1495.191406 
	C300.848114,1495.167358 300.881012,1495.225708 300.725769,1494.916504 
	C298.022827,1492.777344 295.475128,1490.947266 292.912048,1489.173340 
	C292.896667,1489.229370 292.784546,1489.198975 292.730042,1488.853271 
	C290.384186,1486.410156 288.092834,1484.312744 285.824677,1482.191162 
	C285.847900,1482.167114 285.880768,1482.225464 285.726807,1481.918213 
	C275.898743,1472.158691 266.240295,1462.690308 256.515533,1453.290527 
	C255.868668,1452.665283 254.717865,1452.561646 253.823883,1452.190430 
	C253.846313,1452.165527 253.885925,1452.219604 253.731171,1451.911621 
	C241.351074,1438.212036 229.123657,1424.822510 216.900909,1411.428589 
	C193.051163,1385.293579 171.698090,1357.186890 151.748123,1328.025391 
	C122.325699,1285.017700 97.197433,1239.591919 75.930824,1192.006470 
	C57.394947,1150.531128 42.239773,1107.891602 30.981588,1063.879517 
	C20.562117,1023.146301 12.698524,981.935364 8.895361,940.035461 
	C6.911368,918.177612 4.775867,896.279846 4.197199,874.360779 
	C3.327406,841.414368 3.314175,808.395630 7.031184,775.575562 
	C10.195791,747.632874 13.223654,719.622559 17.942532,691.919861 
	C26.044319,644.357483 38.642803,597.855408 55.730682,552.709167 
	C65.025078,528.153320 74.763580,503.694641 85.789391,479.880951 
	C104.862488,438.686615 128.007980,399.751312 153.945801,362.449097 
	C179.100174,326.273621 206.795975,292.163910 237.325729,260.481537 
	C255.441132,241.682220 274.791443,224.031647 294.127502,206.459869 
	C320.671326,182.338013 349.396637,160.920761 379.167633,140.969864 
	C415.761078,116.446922 454.090485,94.971680 494.265076,76.820816 
	C528.023193,61.568901 562.576965,48.468170 598.108276,37.985363 
	C640.855652,25.373608 684.228210,15.486787 728.546387,10.555912 
	C755.308960,7.578279 782.213440,4.978850 809.106323,4.312495 
	C838.193970,3.591757 867.358765,4.920463 896.457397,6.135092 
	C912.554810,6.807025 928.735046,8.176221 944.614502,10.815869 
	C975.488220,15.948015 1006.170105,22.229908 1036.956055,27.902363 
	C1038.843506,28.250139 1040.944946,27.436834 1043.227295,27.165480 
	C1043.998047,27.400648 1044.488281,27.634102 1045.108887,28.206936 
	C1048.786865,32.182835 1053.666382,33.149708 1057.383301,30.931648 
	C1058.822754,31.374502 1059.912964,31.769142 1061.065063,32.442856 
	C1062.096313,32.775848 1063.065430,32.829769 1064.385498,32.932716 
	C1066.484253,33.610405 1068.232056,34.239067 1070.085449,35.174282 
	C1071.261108,37.627575 1072.481689,38.339649 1074.385132,35.931114 
	C1076.817261,36.783310 1078.898193,37.587662 1081.084106,38.693192 
	C1082.233276,39.221996 1083.277344,39.449631 1084.631836,39.815231 
	C1087.572388,40.599060 1090.202515,41.244923 1093.112183,42.077255 
	C1093.768799,42.499588 1094.145996,42.735455 1094.805664,42.904564 
	C1103.603394,45.573597 1112.354858,47.739513 1120.590454,51.150440 
	C1146.832397,62.018993 1173.142944,72.787529 1198.914917,84.702324 
	C1215.929932,92.568672 1232.182495,102.129051 1248.566650,111.305374 
	C1275.996460,126.668030 1302.354492,143.768829 1327.266357,162.925980 
	C1344.734863,176.359116 1361.443970,190.784653 1378.398438,204.879822 
	C1387.572998,212.507202 1397.026611,219.888184 1405.507202,228.240570 
	C1418.523438,241.060211 1430.966187,254.476822 1443.358032,267.911560 
	C1454.049561,279.502930 1464.808228,291.088623 1474.683105,303.363831 
	C1490.173706,322.619904 1505.783081,341.877014 1519.792236,362.201965 
	C1534.574951,383.648987 1547.840820,406.168701 1561.226440,428.544708 
	C1579.183716,458.563171 1594.261841,490.117157 1606.802490,522.700073 
	C1618.246948,552.435303 1629.030029,582.549805 1637.778076,613.161987 
	C1646.106689,642.306702 1652.119507,672.178467 1657.830444,701.983398 
	C1661.754028,722.460022 1663.788330,743.330139 1665.985229,764.096436 
	C1667.833862,781.571655 1669.689087,799.145996 1669.777832,816.685303 
	C1669.927612,846.280029 1669.146729,875.902222 1667.854858,905.473328 
	C1667.037842,924.173645 1665.616455,942.969604 1662.630127,961.425598 
	C1657.651978,992.191528 1651.924438,1022.879639 1645.175293,1053.303833 
	C1637.829590,1086.417969 1626.994141,1118.572998 1615.070557,1150.341553 
	C1598.848145,1193.564087 1578.956299,1235.058594 1555.868530,1274.981934 
	C1536.645264,1308.223145 1515.792480,1340.489136 1491.336792,1370.151001 
	C1470.968384,1394.855713 1449.935181,1419.044312 1428.425659,1442.762695 
	C1417.511963,1454.797119 1405.274780,1465.724976 1392.965576,1476.378540 
	C1373.280762,1493.415894 1353.411621,1510.284180 1332.944214,1526.363159 
	C1300.872070,1551.559204 1266.411133,1573.290649 1230.508301,1592.548218 
	C1208.713745,1604.238281 1186.257812,1614.765747 1163.725830,1624.993286 
	C1131.759155,1639.503052 1098.651855,1651.103149 1064.917480,1660.768799 
	C1024.171875,1672.443237 982.825562,1681.508301 940.638184,1686.001465 
	C916.077332,1688.617188 891.388916,1690.031494 866.761414,1692.030640 
	C865.158630,1692.160767 863.586426,1692.668091 862.000000,1693.000000 
M1022.471313,966.619507 
	C1021.135071,966.103271 1019.798828,965.587097 1017.762695,965.013977 
	C1013.835327,963.703613 1009.993225,961.674927 1005.967041,961.197083 
	C974.907959,957.510803 956.323608,989.263733 965.595215,1014.061829 
	C970.350647,1026.780640 979.161133,1035.434570 992.281006,1040.565674 
	C994.893433,1041.683960 997.517822,1043.783936 1000.116150,1043.752197 
	C1011.947754,1043.607422 1023.043274,1039.343018 1030.232422,1030.438965 
	C1044.638428,1012.596619 1044.985474,1000.291626 1034.733398,979.239380 
	C1032.393311,974.434082 1026.863281,971.182251 1022.850403,967.152588 
	C1022.850403,967.152588 1022.913025,967.201782 1022.471313,966.619507 
M946.284729,1190.279175 
	C951.377991,1181.592896 954.149841,1172.546631 952.011414,1162.262573 
	C948.688354,1146.281250 936.081848,1133.142822 919.190063,1133.483887 
	C899.099854,1133.889404 886.686707,1148.927612 886.164612,1167.203125 
	C885.703918,1183.329468 895.364075,1201.259399 918.451477,1204.706299 
	C926.763306,1207.092041 933.617554,1203.250610 940.010742,1198.977417 
	C942.627136,1197.228638 944.014282,1193.640747 946.284729,1190.279175 
M977.096863,1052.037720 
	C974.312012,1051.707642 971.481689,1050.881226 968.749939,1051.131226 
	C955.160217,1052.374878 944.466431,1058.404297 938.075439,1070.874512 
	C931.369690,1083.958740 931.957275,1096.829468 939.067383,1109.683228 
	C943.653809,1117.974731 951.056458,1122.690186 959.281860,1127.567017 
	C962.061462,1128.696167 964.806946,1130.701050 967.626160,1130.810547 
	C984.093079,1131.450684 995.489807,1123.526367 1003.493835,1109.415283 
	C1014.975769,1089.172729 1004.502197,1061.255737 983.174866,1052.730835 
	C981.598450,1052.100708 979.695435,1052.287720 977.096863,1052.037720 
M953.119263,325.026276 
	C950.331238,324.773621 947.448914,323.938995 944.772217,324.373138 
	C935.231628,325.920441 930.423584,332.908356 929.960327,344.388947 
	C929.545837,354.661407 928.995605,364.943481 928.021912,375.175293 
	C925.724060,399.319794 919.478394,422.568665 910.377869,444.955292 
	C895.481812,481.598572 873.401611,513.657166 845.639099,541.658569 
	C830.203491,557.226868 813.954956,572.014648 797.664734,586.701477 
	C785.845642,597.357178 773.325134,607.232605 761.174316,617.523193 
	C745.095154,631.140808 728.359192,644.084290 713.210754,658.672852 
	C695.641724,675.592407 678.962097,693.518921 662.840515,711.839111 
	C637.552307,740.576111 617.500793,772.785522 601.990417,807.846619 
	C588.553589,838.220459 579.772400,869.870483 578.372131,902.988037 
	C577.583923,921.630371 578.696716,940.643066 581.547607,959.087952 
	C587.259705,996.045166 602.143616,1029.785889 622.492249,1061.028442 
	C640.625549,1088.869751 661.997253,1114.079224 687.311951,1135.646118 
	C704.469543,1150.263672 721.536072,1165.290283 740.258545,1177.696533 
	C767.078430,1195.468262 795.059204,1211.572144 823.121338,1227.362549 
	C853.690613,1244.563965 884.009094,1262.079590 912.653687,1282.372437 
	C938.967468,1301.013916 962.603699,1322.499512 982.490356,1347.983887 
	C1008.823669,1381.729370 1025.744263,1419.835327 1034.806519,1461.509521 
	C1036.458740,1469.107422 1038.817993,1475.873413 1046.322876,1480.521973 
	C1048.562866,1483.657837 1051.577026,1484.398682 1055.128662,1483.286255 
	C1065.485352,1480.042725 1072.671753,1471.052490 1070.000244,1460.254639 
	C1069.161133,1456.863647 1068.685303,1453.384033 1067.890015,1449.980713 
	C1058.271484,1408.818115 1042.645630,1370.347290 1017.190857,1336.218872 
	C1002.685852,1316.771240 986.369446,1298.963013 967.789062,1283.455078 
	C951.578857,1269.925537 935.387146,1256.009888 917.567627,1244.851196 
	C884.555725,1224.178467 850.482605,1205.181396 816.626526,1185.880737 
	C779.326172,1164.616821 743.533020,1141.184204 711.849304,1112.099854 
	C684.749939,1087.223877 661.026978,1059.564697 642.786865,1027.180420 
	C619.775513,986.325012 610.419067,943.073547 614.787537,896.481384 
	C617.752930,864.854065 626.807739,835.046875 640.751404,806.779419 
	C658.964844,769.856079 684.184692,737.791016 712.509827,708.190552 
	C724.579468,695.577454 737.416809,683.634644 750.536011,672.104980 
	C770.909363,654.200073 791.942078,637.047729 812.468445,619.313782 
	C829.211365,604.848633 846.536987,590.889099 861.925598,575.072205 
	C877.658813,558.901428 891.988892,541.235413 905.775696,523.332520 
	C924.694763,498.764923 938.511230,471.218811 949.117432,442.098328 
	C958.886292,415.276703 963.754578,387.396484 965.691650,359.059082 
	C966.281921,350.423492 964.785706,341.515381 963.221924,332.918152 
	C962.459473,328.726105 959.727112,324.495667 953.119263,325.026276 
M1038.877197,927.286682 
	C1042.679443,920.327393 1045.322388,912.871582 1044.787964,904.964905 
	C1043.829590,890.784302 1037.585693,879.155029 1025.579590,871.197876 
	C1010.031555,860.893372 990.464355,862.904114 977.869873,878.401001 
	C965.204651,893.984924 964.555298,910.897400 974.599304,927.927063 
	C981.859863,940.237305 993.397766,946.961243 1007.580933,946.704834 
	C1020.992554,946.462219 1031.364502,939.399597 1038.877197,927.286682 
M945.773621,827.621399 
	C946.772949,829.897278 947.608215,832.263000 948.798157,834.434448 
	C957.108521,849.599731 975.903748,857.506226 991.185974,852.874817 
	C1014.192566,845.902588 1025.140381,819.796143 1014.972290,797.064941 
	C1004.858459,774.455078 979.625000,767.368347 959.226562,781.212830 
	C945.186279,790.742004 939.786987,808.648743 945.773621,827.621399 
M913.722717,767.880798 
	C923.789795,773.454163 934.273682,774.405457 944.735046,769.558777 
	C969.404785,758.129456 974.375671,726.617310 955.562866,706.818909 
	C941.873474,692.412354 918.624756,692.375427 904.818665,706.808777 
	C887.559631,724.851929 891.712219,754.165527 913.722717,767.880798 
M890.037964,691.517700 
	C902.281067,675.607117 900.279236,656.118713 884.889221,641.394104 
	C871.777527,628.849243 848.209534,631.286682 837.877502,646.256165 
	C827.393555,661.445740 827.866760,679.787720 840.231079,693.477173 
	C854.510742,709.287170 876.283447,708.650452 890.037964,691.517700 
M690.995789,551.506592 
	C684.438049,558.104431 682.660339,566.334351 684.396362,574.981567 
	C685.757385,581.761230 688.242676,588.610107 694.864807,592.353271 
	C710.891052,601.412048 727.702209,593.996887 732.492432,575.936035 
	C735.148499,565.921326 729.151855,552.644226 719.407227,546.964600 
	C710.456970,541.747986 699.674500,543.307007 690.995789,551.506592 
M799.776367,1278.434814 
	C795.385315,1278.194092 790.687195,1276.817261 786.655640,1277.906738 
	C767.966187,1282.958008 761.538086,1305.971069 775.018372,1320.167847 
	C783.574829,1329.179199 793.751160,1331.314941 803.855835,1325.293335 
	C813.294495,1319.668457 817.142700,1310.543701 815.852966,1299.781006 
	C814.698120,1290.144287 809.988647,1282.576538 799.776367,1278.434814 
M619.482422,530.979187 
	C626.066040,537.490845 633.780701,538.937927 640.548218,534.930542 
	C647.971924,530.534607 651.646912,521.544495 649.277344,513.576538 
	C646.402527,503.909515 640.043030,498.785248 631.111633,499.018829 
	C624.183167,499.199982 619.143677,502.331390 616.149536,508.681976 
	C612.432556,516.565735 613.493042,523.789917 619.482422,530.979187 
M736.437744,1391.082275 
	C744.247009,1388.853394 749.297546,1382.751343 749.996582,1375.159668 
	C750.819336,1366.223755 745.144348,1359.727173 738.512817,1356.440552 
	C732.191345,1353.307617 723.918945,1355.794067 719.838867,1361.352661 
	C714.665710,1368.400146 714.523132,1379.228760 719.546204,1385.011719 
	C723.811340,1389.921997 728.765991,1393.084595 736.437744,1391.082275 
M832.877014,234.753601 
	C831.113281,230.802902 827.606750,228.335129 823.829834,229.401871 
	C820.809082,230.254990 817.884216,233.281036 816.061340,236.086395 
	C813.685852,239.742294 815.788086,243.559113 818.266479,246.528717 
	C821.361572,250.237320 827.758911,250.947495 830.235962,247.885071 
	C833.111694,244.329681 836.056335,240.493668 832.877014,234.753601 
M866.129089,286.268646 
	C868.828979,289.906708 874.610596,292.578369 877.198181,290.447174 
	C879.937500,288.190979 882.921326,284.745056 883.325806,281.509735 
	C883.854187,277.282532 881.431335,272.540253 876.617981,271.658478 
	C873.626221,271.110413 869.422302,271.981232 867.155884,273.879150 
	C863.678345,276.791321 862.840698,281.274841 866.129089,286.268646 
M769.814209,215.041855 
	C771.940247,208.081726 768.964661,201.924713 763.069824,201.086624 
	C758.366638,200.417984 753.820679,203.116852 752.392944,207.425415 
	C750.636353,212.726318 753.258972,217.318726 759.662292,220.371124 
	C764.885986,222.861237 767.245972,219.461426 769.814209,215.041855 
M701.165466,227.507172 
	C701.610474,226.616714 702.181580,225.766327 702.479431,224.829117 
	C704.071106,219.820450 701.463196,214.204544 696.815186,212.497849 
	C691.753479,210.639282 687.075867,212.947327 684.879395,218.387222 
	C683.434509,221.965973 685.358459,227.632034 688.908386,230.252487 
	C692.624634,232.995697 695.940796,232.424713 701.165466,227.507172 
M645.562744,258.286804 
	C645.283386,257.682343 645.038818,257.058777 644.719238,256.476349 
	C641.999268,251.519547 637.361755,249.893021 632.599060,252.210831 
	C627.808228,254.542374 626.006287,259.282043 627.991516,264.330292 
	C629.703247,268.683105 634.333496,271.628082 638.101379,270.760559 
	C643.389771,269.542938 645.969604,265.611847 645.562744,258.286804 
M558.766296,377.324280 
	C561.075012,381.998871 564.909851,383.776550 569.881226,382.722260 
	C573.310547,381.994965 576.929138,376.645203 576.751953,373.176666 
	C576.511658,368.473175 573.335754,364.839111 568.524292,363.762085 
	C561.605713,362.213348 557.321777,367.650604 558.766296,377.324280 
M586.242798,311.154968 
	C586.619934,312.255188 586.886719,313.409241 587.392944,314.446472 
	C589.733582,319.242065 593.743469,321.104767 598.423218,319.651428 
	C602.906494,318.259094 605.734680,313.407379 604.871521,308.589050 
	C604.153687,304.581360 599.595032,300.404968 595.910278,300.379181 
	C590.818237,300.343506 587.464355,303.782074 586.242798,311.154968 
M576.217773,454.356262 
	C578.147156,446.513367 573.039917,439.400055 566.517090,440.719482 
	C561.580444,441.718079 558.850098,444.980804 558.559937,449.585480 
	C558.308105,453.583374 559.846619,457.457733 563.967163,459.347809 
	C568.172119,461.276581 572.057983,459.799927 576.217773,454.356262 
M689.747375,1465.889038 
	C691.171753,1465.563965 692.753479,1465.530151 693.991821,1464.860840 
	C698.223633,1462.573975 698.565430,1458.505615 697.743103,1454.493652 
	C696.972900,1450.736084 693.977661,1448.438965 690.297424,1448.269043 
	C686.185303,1448.078979 683.651794,1450.983276 682.379639,1454.645142 
	C680.836365,1459.087402 683.286560,1462.998535 689.747375,1465.889038 
z"/>
<path fill="#4C6971" opacity="1.000000" stroke="none" 
	d="
M1080.979126,38.392014 
	C1078.898193,37.587662 1076.817261,36.783310 1074.112061,35.705120 
	C1072.318604,35.243431 1071.149170,35.055584 1069.979858,34.867733 
	C1068.232056,34.239067 1066.484253,33.610405 1064.142822,32.717510 
	C1062.700439,32.356777 1061.851685,32.260277 1061.003052,32.163780 
	C1059.912964,31.769142 1058.822754,31.374502 1057.093750,30.699814 
	C1052.629395,29.569017 1048.803955,28.718269 1044.978638,27.867538 
	C1044.488281,27.634102 1043.998047,27.400648 1042.894409,26.978954 
	C1025.323730,22.960876 1008.473511,18.535913 991.381287,15.453507 
	C970.536926,11.694447 949.497620,9.005169 928.524902,5.975254 
	C920.695374,4.844128 912.816162,4.056878 904.967590,2.760647 
	C904.983765,1.938973 904.991882,1.469487 905.000000,1.000000 
	C1271.626099,1.000000 1638.252075,1.000000 2004.939087,1.000000 
	C2004.939087,564.896912 2004.939087,1128.793823 2004.939087,1693.000000 
	C1624.312500,1693.000000 1243.624878,1693.000000 862.468628,1693.000000 
	C863.586426,1692.668091 865.158630,1692.160767 866.761414,1692.030640 
	C891.388916,1690.031494 916.077332,1688.617188 940.638184,1686.001465 
	C982.825562,1681.508301 1024.171875,1672.443237 1064.917480,1660.768799 
	C1098.651855,1651.103149 1131.759155,1639.503052 1163.725830,1624.993286 
	C1186.257812,1614.765747 1208.713745,1604.238281 1230.508301,1592.548218 
	C1266.411133,1573.290649 1300.872070,1551.559204 1332.944214,1526.363159 
	C1353.411621,1510.284180 1373.280762,1493.415894 1392.965576,1476.378540 
	C1405.274780,1465.724976 1417.511963,1454.797119 1428.425659,1442.762695 
	C1449.935181,1419.044312 1470.968384,1394.855713 1491.336792,1370.151001 
	C1515.792480,1340.489136 1536.645264,1308.223145 1555.868530,1274.981934 
	C1578.956299,1235.058594 1598.848145,1193.564087 1615.070557,1150.341553 
	C1626.994141,1118.572998 1637.829590,1086.417969 1645.175293,1053.303833 
	C1651.924438,1022.879639 1657.651978,992.191528 1662.630127,961.425598 
	C1665.616455,942.969604 1667.037842,924.173645 1667.854858,905.473328 
	C1669.146729,875.902222 1669.927612,846.280029 1669.777832,816.685303 
	C1669.689087,799.145996 1667.833862,781.571655 1665.985229,764.096436 
	C1663.788330,743.330139 1661.754028,722.460022 1657.830444,701.983398 
	C1652.119507,672.178467 1646.106689,642.306702 1637.778076,613.161987 
	C1629.030029,582.549805 1618.246948,552.435303 1606.802490,522.700073 
	C1594.261841,490.117157 1579.183716,458.563171 1561.226440,428.544708 
	C1547.840820,406.168701 1534.574951,383.648987 1519.792236,362.201965 
	C1505.783081,341.877014 1490.173706,322.619904 1474.683105,303.363831 
	C1464.808228,291.088623 1454.049561,279.502930 1443.358032,267.911560 
	C1430.966187,254.476822 1418.523438,241.060211 1405.507202,228.240570 
	C1397.026611,219.888184 1387.572998,212.507202 1378.398438,204.879822 
	C1361.443970,190.784653 1344.734863,176.359116 1327.266357,162.925980 
	C1302.354492,143.768829 1275.996460,126.668030 1248.566650,111.305374 
	C1232.182495,102.129051 1215.929932,92.568672 1198.914917,84.702324 
	C1173.142944,72.787529 1146.832397,62.018993 1120.590454,51.150440 
	C1112.354858,47.739513 1103.603394,45.573597 1094.585938,42.644444 
	C1093.666870,42.264313 1093.249756,42.077534 1092.832764,41.890770 
	C1090.202515,41.244923 1087.572388,40.599060 1084.516357,39.563072 
	C1083.053345,38.912632 1082.016235,38.652321 1080.979126,38.392014 
z"/>
<path fill="#4C6971" opacity="1.000000" stroke="none" 
	d="
M440.873230,1592.614990 
	C445.386292,1594.957886 449.899353,1597.300659 454.991089,1599.909668 
	C456.378174,1600.730103 457.186584,1601.284302 457.994995,1601.838623 
	C484.639130,1613.838867 510.938995,1626.691772 538.014526,1637.623657 
	C571.898071,1651.304199 606.783142,1662.426880 642.532593,1670.114624 
	C671.515747,1676.347290 700.794006,1681.351807 730.096985,1685.898193 
	C747.583557,1688.611328 765.362061,1689.485229 783.025574,1690.996460 
	C791.447632,1691.717041 799.907410,1691.995850 808.675049,1692.737305 
	C539.739319,1693.000000 270.478577,1693.000000 1.000000,1693.000000 
	C1.000000,1421.979126 1.000000,1150.958252 1.262688,879.793579 
	C3.000885,899.318420 3.927149,919.047913 6.097224,938.639526 
	C8.559015,960.864746 11.354257,983.109863 15.390540,1005.091797 
	C23.434597,1048.900269 34.957851,1091.840332 50.040199,1133.802734 
	C64.166542,1173.105225 80.803528,1211.255615 100.469215,1248.131470 
	C119.652817,1284.103394 141.223373,1318.536621 165.276520,1351.413086 
	C186.364731,1380.237183 209.158463,1407.661743 233.913147,1433.434082 
	C238.169113,1437.865112 242.149353,1442.568481 246.524033,1446.874756 
	C248.661118,1448.978271 251.412506,1450.457764 253.885895,1452.219727 
	C253.885925,1452.219604 253.846313,1452.165527 253.897324,1452.517212 
	C263.670929,1462.399292 273.376556,1471.947266 283.157562,1481.417236 
	C283.760681,1482.001343 284.959198,1481.970337 285.880768,1482.225464 
	C285.880768,1482.225464 285.847900,1482.167114 285.897644,1482.517090 
	C288.226440,1484.977783 290.505463,1487.088379 292.784546,1489.198975 
	C292.784546,1489.198975 292.896667,1489.229370 293.073608,1489.464844 
	C295.794037,1491.542236 298.337524,1493.383911 300.881012,1495.225708 
	C300.881012,1495.225708 300.848114,1495.167358 300.897217,1495.516357 
	C302.892365,1497.643311 304.838440,1499.421143 306.784546,1501.198975 
	C306.784546,1501.198975 306.895966,1501.229126 307.066895,1501.459717 
	C308.754028,1502.860474 310.270203,1504.030640 311.786407,1505.200928 
	C311.786407,1505.200928 311.897858,1505.229126 312.067871,1505.459717 
	C313.754028,1506.860474 315.270233,1508.030640 316.786407,1509.200928 
	C316.786407,1509.200928 316.897858,1509.229126 317.067841,1509.459717 
	C318.754028,1510.860474 320.270203,1512.030762 321.786377,1513.200928 
	C321.786407,1513.200928 321.897858,1513.229126 322.067871,1513.459717 
	C323.754028,1514.860474 325.270203,1516.030640 326.786407,1517.200928 
	C326.786407,1517.200928 326.897858,1517.228760 327.063934,1517.455078 
	C328.417908,1518.521362 329.605774,1519.361450 330.793671,1520.201416 
	C330.793671,1520.201416 330.901733,1520.225830 331.069763,1520.458008 
	C332.753998,1521.860474 334.270203,1523.030762 335.786377,1524.200928 
	C335.786407,1524.200928 335.897858,1524.228760 336.063934,1524.455078 
	C337.417908,1525.521362 338.605774,1526.361450 339.793671,1527.201416 
	C339.793671,1527.201416 339.901733,1527.225342 340.065887,1527.453369 
	C341.417938,1528.521362 342.605835,1529.361328 343.793701,1530.201416 
	C343.793671,1530.201416 343.916351,1530.224121 344.106018,1530.458496 
	C345.499207,1531.199585 346.702728,1531.706543 347.906250,1532.213379 
	C347.906250,1532.213379 347.856934,1532.163452 347.916687,1532.524414 
	C349.278625,1533.665649 350.580750,1534.445801 351.882874,1535.225952 
	C351.882904,1535.225952 351.854401,1535.164795 351.915436,1535.525146 
	C353.278595,1536.665771 354.580719,1537.445923 355.882874,1538.226074 
	C355.882904,1538.225952 355.893127,1538.145752 355.961273,1538.501221 
	C356.986359,1539.308105 357.943298,1539.759521 358.900269,1540.211060 
	C358.900269,1540.211060 358.852600,1540.161865 358.914551,1540.523682 
	C360.278625,1541.665649 361.580750,1542.445801 362.882904,1543.225952 
	C362.882904,1543.225952 362.893127,1543.145752 362.961273,1543.501221 
	C363.986359,1544.308105 364.943329,1544.759521 365.900269,1545.211060 
	C365.900269,1545.211060 365.876892,1545.146729 365.953156,1545.501709 
	C366.986359,1546.308105 367.943329,1546.759521 368.900269,1547.211060 
	C368.900269,1547.211060 368.876892,1547.146729 368.953156,1547.501709 
	C369.986359,1548.308105 370.943329,1548.759521 371.900269,1549.211060 
	C371.900269,1549.211060 371.876892,1549.146729 371.953125,1549.501709 
	C372.986328,1550.308228 373.943268,1550.759644 374.900238,1551.211182 
	C374.900269,1551.211060 374.876892,1551.146729 374.953156,1551.501709 
	C375.986359,1552.308105 376.943329,1552.759521 377.900269,1553.211060 
	C377.900269,1553.211060 377.896210,1553.143555 377.924347,1553.455566 
	C378.582184,1554.234741 379.211914,1554.702148 379.841614,1555.169556 
	C379.841614,1555.169556 379.924438,1555.184204 380.110046,1555.438477 
	C381.499207,1556.199585 382.702728,1556.706543 383.906250,1557.213379 
	C383.906250,1557.213379 383.879913,1557.151978 383.954651,1557.504272 
	C384.986359,1558.308105 385.943329,1558.759521 386.900269,1559.211060 
	C386.900269,1559.211060 386.876892,1559.146729 386.953156,1559.501709 
	C387.986359,1560.308105 388.943298,1560.759521 389.900269,1561.211060 
	C389.900269,1561.211060 389.917511,1561.143677 389.947449,1561.469727 
	C390.622284,1562.392944 391.267212,1562.990112 391.912140,1563.587280 
	C392.289398,1563.753784 392.666656,1563.920288 393.465851,1564.349854 
	C394.879181,1565.131958 395.870605,1565.650879 396.862000,1566.169800 
	C396.862000,1566.169800 396.940033,1566.167480 397.094910,1566.419434 
	C398.136139,1567.313599 399.022522,1567.955811 399.908875,1568.598145 
	C400.287384,1568.761475 400.665863,1568.924683 401.466064,1569.350586 
	C402.879150,1570.131958 403.870575,1570.650879 404.862000,1571.169800 
	C404.862000,1571.169800 404.940033,1571.167480 405.094910,1571.419434 
	C406.136139,1572.313599 407.022491,1572.955811 407.908875,1573.598145 
	C408.286621,1573.761597 408.664398,1573.925049 409.446350,1574.348633 
	C410.898285,1575.352173 411.946045,1576.095459 412.993805,1576.838867 
	C414.144104,1577.452393 415.294403,1578.065796 416.994202,1578.904907 
	C417.997803,1579.439819 418.451935,1579.749146 418.906097,1580.058350 
	C419.567383,1580.387817 420.228638,1580.717407 421.401978,1581.338623 
	C422.916840,1582.282837 423.919678,1582.935547 424.922546,1583.588257 
	C425.912354,1584.079468 426.902161,1584.570679 428.362030,1585.329834 
	C429.523712,1586.084839 430.215332,1586.571777 430.906952,1587.058716 
	C433.355164,1588.352783 435.803375,1589.646851 438.784851,1591.266846 
	C439.836517,1591.933350 440.354889,1592.274170 440.873230,1592.614990 
z"/>
<path fill="#4C6971" opacity="1.000000" stroke="none" 
	d="
M1.000000,814.000000 
	C1.000000,543.069336 1.000000,272.138641 1.000000,1.000000 
	C266.362671,1.000000 531.725403,1.000000 797.219360,1.262627 
	C786.106140,2.327628 774.821167,2.765866 763.625793,4.010159 
	C742.051025,6.408060 720.449768,8.757050 698.998413,12.035183 
	C658.883850,18.165361 619.602051,28.062662 581.023865,40.564529 
	C532.068542,56.429291 484.710205,76.214516 439.952911,101.699173 
	C416.022095,115.325310 392.557373,129.845886 369.486572,144.889511 
	C331.428009,169.706070 296.637939,198.790573 263.757019,230.035004 
	C246.170853,246.745895 229.290115,264.319885 213.326584,282.584290 
	C196.754410,301.545044 181.310318,321.532104 166.022766,341.566223 
	C140.881393,374.513763 119.097168,409.682678 99.983582,446.419769 
	C89.325676,466.904694 79.604446,487.901703 70.100281,508.956421 
	C55.037140,542.325928 43.179722,576.923401 33.273315,612.123413 
	C21.619442,653.532715 12.382607,695.514648 7.960145,738.381531 
	C5.528029,761.955994 3.967102,785.620178 1.969821,809.240173 
	C1.834318,810.842651 1.331816,812.414124 1.000000,814.000000 
z"/>
<path fill="#5B4ECB" opacity="1.000000" stroke="none" 
	d="
M1.000000,814.468628 
	C1.331816,812.414124 1.834318,810.842651 1.969821,809.240173 
	C3.967102,785.620178 5.528029,761.955994 7.960145,738.381531 
	C12.382607,695.514648 21.619442,653.532715 33.273315,612.123413 
	C43.179722,576.923401 55.037140,542.325928 70.100281,508.956421 
	C79.604446,487.901703 89.325676,466.904694 99.983582,446.419769 
	C119.097168,409.682678 140.881393,374.513763 166.022766,341.566223 
	C181.310318,321.532104 196.754410,301.545044 213.326584,282.584290 
	C229.290115,264.319885 246.170853,246.745895 263.757019,230.035004 
	C296.637939,198.790573 331.428009,169.706070 369.486572,144.889511 
	C392.557373,129.845886 416.022095,115.325310 439.952911,101.699173 
	C484.710205,76.214516 532.068542,56.429291 581.023865,40.564529 
	C619.602051,28.062662 658.883850,18.165361 698.998413,12.035183 
	C720.449768,8.757050 742.051025,6.408060 763.625793,4.010159 
	C774.821167,2.765866 786.106140,2.327628 797.675293,1.262627 
	C822.687561,1.000000 847.375122,1.000000 872.856018,1.262625 
	C884.086121,2.054442 894.522827,2.583634 904.959595,3.112830 
	C912.816162,4.056878 920.695374,4.844128 928.524902,5.975254 
	C949.497620,9.005169 970.536926,11.694447 991.381287,15.453507 
	C1008.473511,18.535913 1025.323730,22.960876 1042.614014,26.977242 
	C1040.944946,27.436834 1038.843506,28.250139 1036.956055,27.902363 
	C1006.170105,22.229908 975.488220,15.948015 944.614502,10.815869 
	C928.735046,8.176221 912.554810,6.807025 896.457397,6.135092 
	C867.358765,4.920463 838.193970,3.591757 809.106323,4.312495 
	C782.213440,4.978850 755.308960,7.578279 728.546387,10.555912 
	C684.228210,15.486787 640.855652,25.373608 598.108276,37.985363 
	C562.576965,48.468170 528.023193,61.568901 494.265076,76.820816 
	C454.090485,94.971680 415.761078,116.446922 379.167633,140.969864 
	C349.396637,160.920761 320.671326,182.338013 294.127502,206.459869 
	C274.791443,224.031647 255.441132,241.682220 237.325729,260.481537 
	C206.795975,292.163910 179.100174,326.273621 153.945801,362.449097 
	C128.007980,399.751312 104.862488,438.686615 85.789391,479.880951 
	C74.763580,503.694641 65.025078,528.153320 55.730682,552.709167 
	C38.642803,597.855408 26.044319,644.357483 17.942532,691.919861 
	C13.223654,719.622559 10.195791,747.632874 7.031184,775.575562 
	C3.314175,808.395630 3.327406,841.414368 4.197199,874.360779 
	C4.775867,896.279846 6.911368,918.177612 8.895361,940.035461 
	C12.698524,981.935364 20.562117,1023.146301 30.981588,1063.879517 
	C42.239773,1107.891602 57.394947,1150.531128 75.930824,1192.006470 
	C97.197433,1239.591919 122.325699,1285.017700 151.748123,1328.025391 
	C171.698090,1357.186890 193.051163,1385.293579 216.900909,1411.428589 
	C229.123657,1424.822510 241.351074,1438.212036 253.731140,1451.911621 
	C251.412506,1450.457764 248.661118,1448.978271 246.524033,1446.874756 
	C242.149353,1442.568481 238.169113,1437.865112 233.913147,1433.434082 
	C209.158463,1407.661743 186.364731,1380.237183 165.276520,1351.413086 
	C141.223373,1318.536621 119.652817,1284.103394 100.469215,1248.131470 
	C80.803528,1211.255615 64.166542,1173.105225 50.040199,1133.802734 
	C34.957851,1091.840332 23.434597,1048.900269 15.390540,1005.091797 
	C11.354257,983.109863 8.559015,960.864746 6.097224,938.639526 
	C3.927149,919.047913 3.000885,899.318420 1.262688,879.324951 
	C1.000000,857.645752 1.000000,836.291565 1.000000,814.468628 
z"/>
<path fill="#4C6971" opacity="1.000000" stroke="none" 
	d="
M904.967590,2.760643 
	C894.522827,2.583634 884.086121,2.054442 873.324707,1.262625 
	C883.354248,1.000000 893.708435,1.000000 904.531372,1.000000 
	C904.991882,1.469487 904.983765,1.938973 904.967590,2.760643 
z"/>
<path fill="#4C6971" opacity="1.000000" stroke="none" 
	d="
M1046.033203,1479.882202 
	C1038.817993,1475.873413 1036.458740,1469.107422 1034.806519,1461.509521 
	C1025.744263,1419.835327 1008.823669,1381.729370 982.490356,1347.983887 
	C962.603699,1322.499512 938.967468,1301.013916 912.653687,1282.372437 
	C884.009094,1262.079590 853.690613,1244.563965 823.121338,1227.362549 
	C795.059204,1211.572144 767.078430,1195.468262 740.258545,1177.696533 
	C721.536072,1165.290283 704.469543,1150.263672 687.311951,1135.646118 
	C661.997253,1114.079224 640.625549,1088.869751 622.492249,1061.028442 
	C602.143616,1029.785889 587.259705,996.045166 581.547607,959.087952 
	C578.696716,940.643066 577.583923,921.630371 578.372131,902.988037 
	C579.772400,869.870483 588.553589,838.220459 601.990417,807.846619 
	C617.500793,772.785522 637.552307,740.576111 662.840515,711.839111 
	C678.962097,693.518921 695.641724,675.592407 713.210754,658.672852 
	C728.359192,644.084290 745.095154,631.140808 761.174316,617.523193 
	C773.325134,607.232605 785.845642,597.357178 797.664734,586.701477 
	C813.954956,572.014648 830.203491,557.226868 845.639099,541.658569 
	C873.401611,513.657166 895.481812,481.598572 910.377869,444.955292 
	C919.478394,422.568665 925.724060,399.319794 928.021912,375.175293 
	C928.995605,364.943481 929.545837,354.661407 929.960327,344.388947 
	C930.423584,332.908356 935.231628,325.920441 944.772217,324.373138 
	C947.448914,323.938995 950.331238,324.773621 953.758179,325.306152 
	C961.298828,329.667511 963.162476,336.449493 962.869324,343.601685 
	C962.326294,356.849945 961.489868,370.119629 959.972290,383.287781 
	C956.443298,413.909515 947.540588,443.077881 934.481995,470.937683 
	C917.442627,507.290375 893.398987,538.831177 865.683655,567.506104 
	C852.207275,581.448975 837.200928,593.935669 822.636719,606.797913 
	C808.207214,619.541138 793.446472,631.908875 778.860596,644.475586 
	C762.140503,658.881104 744.774353,672.623657 728.944153,687.950684 
	C713.455627,702.947021 699.083496,719.178406 685.048889,735.576050 
	C661.450684,763.147339 642.580200,793.776184 628.839111,827.442871 
	C612.872375,866.562622 607.127319,907.072815 612.954224,949.027710 
	C617.534363,982.006104 630.120911,1012.004883 647.498779,1040.165283 
	C665.484680,1069.311035 688.294067,1094.356201 714.202637,1116.452026 
	C731.094727,1130.858154 748.453186,1144.976929 766.957031,1157.169067 
	C791.200073,1173.142578 816.773926,1187.097046 841.783203,1201.906860 
	C866.937500,1216.802124 892.508179,1231.041992 917.157898,1246.729492 
	C947.720276,1266.179688 974.722839,1290.027222 998.778503,1317.195801 
	C1015.074646,1335.600952 1028.622925,1355.860962 1039.765747,1377.673462 
	C1052.379150,1402.364746 1061.096924,1428.504150 1066.633301,1455.670166 
	C1067.418335,1459.521851 1068.093994,1463.671875 1067.492676,1467.473877 
	C1066.120850,1476.146851 1057.828857,1483.645752 1046.033203,1479.882202 
z"/>
<path fill="#4C6971" opacity="1.000000" stroke="none" 
	d="
M1038.702881,927.611084 
	C1031.364502,939.399597 1020.992554,946.462219 1007.580933,946.704834 
	C993.397766,946.961243 981.859863,940.237305 974.599304,927.927063 
	C964.555298,910.897400 965.204651,893.984924 977.869873,878.401001 
	C990.464355,862.904114 1010.031555,860.893372 1025.579590,871.197876 
	C1037.585693,879.155029 1043.829590,890.784302 1044.787964,904.964905 
	C1045.322388,912.871582 1042.679443,920.327393 1038.702881,927.611084 
z"/>
<path fill="#4C6971" opacity="1.000000" stroke="none" 
	d="
M945.612976,827.258301 
	C939.786987,808.648743 945.186279,790.742004 959.226562,781.212830 
	C979.625000,767.368347 1004.858459,774.455078 1014.972290,797.064941 
	C1025.140381,819.796143 1014.192566,845.902588 991.185974,852.874817 
	C975.903748,857.506226 957.108521,849.599731 948.798157,834.434448 
	C947.608215,832.263000 946.772949,829.897278 945.612976,827.258301 
z"/>
<path fill="#4C6971" opacity="1.000000" stroke="none" 
	d="
M992.035461,1039.883667 
	C979.161133,1035.434570 970.350647,1026.780640 965.595215,1014.061829 
	C956.323608,989.263733 974.907959,957.510803 1005.967041,961.197083 
	C1009.993225,961.674927 1013.835327,963.703613 1018.356445,965.329346 
	C1020.271179,966.163757 1021.592102,966.682739 1022.913025,967.201782 
	C1022.913025,967.201782 1022.850403,967.152588 1022.899536,967.511230 
	C1023.550049,968.658081 1024.061523,969.539185 1024.766113,970.220825 
	C1035.948364,981.038879 1040.440186,994.182739 1037.885132,1009.479553 
	C1036.366821,1018.569458 1032.121460,1026.349487 1024.704224,1032.153198 
	C1014.998596,1039.747559 1004.201111,1042.699341 992.035461,1039.883667 
z"/>
<path fill="#4C6971" opacity="1.000000" stroke="none" 
	d="
M913.396362,767.706238 
	C891.712219,754.165527 887.559631,724.851929 904.818665,706.808777 
	C918.624756,692.375427 941.873474,692.412354 955.562866,706.818909 
	C974.375671,726.617310 969.404785,758.129456 944.735046,769.558777 
	C934.273682,774.405457 923.789795,773.454163 913.396362,767.706238 
z"/>
<path fill="#4C6971" opacity="1.000000" stroke="none" 
	d="
M959.035461,1126.883789 
	C951.056458,1122.690186 943.653809,1117.974731 939.067383,1109.683228 
	C931.957275,1096.829468 931.369690,1083.958740 938.075439,1070.874512 
	C944.466431,1058.404297 955.160217,1052.374878 968.749939,1051.131226 
	C971.481689,1050.881226 974.312012,1051.707642 977.779663,1052.301880 
	C994.488525,1057.823364 1008.550659,1075.145264 1004.906372,1096.377197 
	C1002.254700,1111.825928 993.932739,1123.244019 978.231506,1127.070557 
	C972.205872,1128.539062 965.455566,1127.033936 959.035461,1126.883789 
z"/>
<path fill="#4C6971" opacity="1.000000" stroke="none" 
	d="
M889.807739,691.796387 
	C876.283447,708.650452 854.510742,709.287170 840.231079,693.477173 
	C827.866760,679.787720 827.393555,661.445740 837.877502,646.256165 
	C848.209534,631.286682 871.777527,628.849243 884.889221,641.394104 
	C900.279236,656.118713 902.281067,675.607117 889.807739,691.796387 
z"/>
<path fill="#5B4ECB" opacity="1.000000" stroke="none" 
	d="
M1046.177979,1480.202148 
	C1057.828857,1483.645752 1066.120850,1476.146851 1067.492676,1467.473877 
	C1068.093994,1463.671875 1067.418335,1459.521851 1066.633301,1455.670166 
	C1061.096924,1428.504150 1052.379150,1402.364746 1039.765747,1377.673462 
	C1028.622925,1355.860962 1015.074646,1335.600952 998.778503,1317.195801 
	C974.722839,1290.027222 947.720276,1266.179688 917.157898,1246.729492 
	C892.508179,1231.041992 866.937500,1216.802124 841.783203,1201.906860 
	C816.773926,1187.097046 791.200073,1173.142578 766.957031,1157.169067 
	C748.453186,1144.976929 731.094727,1130.858154 714.202637,1116.452026 
	C688.294067,1094.356201 665.484680,1069.311035 647.498779,1040.165283 
	C630.120911,1012.004883 617.534363,982.006104 612.954224,949.027710 
	C607.127319,907.072815 612.872375,866.562622 628.839111,827.442871 
	C642.580200,793.776184 661.450684,763.147339 685.048889,735.576050 
	C699.083496,719.178406 713.455627,702.947021 728.944153,687.950684 
	C744.774353,672.623657 762.140503,658.881104 778.860596,644.475586 
	C793.446472,631.908875 808.207214,619.541138 822.636719,606.797913 
	C837.200928,593.935669 852.207275,581.448975 865.683655,567.506104 
	C893.398987,538.831177 917.442627,507.290375 934.481995,470.937683 
	C947.540588,443.077881 956.443298,413.909515 959.972290,383.287781 
	C961.489868,370.119629 962.326294,356.849945 962.869324,343.601685 
	C963.162476,336.449493 961.298828,329.667511 954.170593,325.340698 
	C959.727112,324.495667 962.459473,328.726105 963.221924,332.918152 
	C964.785706,341.515381 966.281921,350.423492 965.691650,359.059082 
	C963.754578,387.396484 958.886292,415.276703 949.117432,442.098328 
	C938.511230,471.218811 924.694763,498.764923 905.775696,523.332520 
	C891.988892,541.235413 877.658813,558.901428 861.925598,575.072205 
	C846.536987,590.889099 829.211365,604.848633 812.468445,619.313782 
	C791.942078,637.047729 770.909363,654.200073 750.536011,672.104980 
	C737.416809,683.634644 724.579468,695.577454 712.509827,708.190552 
	C684.184692,737.791016 658.964844,769.856079 640.751404,806.779419 
	C626.807739,835.046875 617.752930,864.854065 614.787537,896.481384 
	C610.419067,943.073547 619.775513,986.325012 642.786865,1027.180420 
	C661.026978,1059.564697 684.749939,1087.223877 711.849304,1112.099854 
	C743.533020,1141.184204 779.326172,1164.616821 816.626526,1185.880737 
	C850.482605,1205.181396 884.555725,1224.178467 917.567627,1244.851196 
	C935.387146,1256.009888 951.578857,1269.925537 967.789062,1283.455078 
	C986.369446,1298.963013 1002.685852,1316.771240 1017.190857,1336.218872 
	C1042.645630,1370.347290 1058.271484,1408.818115 1067.890015,1449.980713 
	C1068.685303,1453.384033 1069.161133,1456.863647 1070.000244,1460.254639 
	C1072.671753,1471.052490 1065.485352,1480.042725 1055.128662,1483.286255 
	C1051.577026,1484.398682 1048.562866,1483.657837 1046.177979,1480.202148 
z"/>
<path fill="#4C6971" opacity="1.000000" stroke="none" 
	d="
M918.019714,1204.162842 
	C895.364075,1201.259399 885.703918,1183.329468 886.164612,1167.203125 
	C886.686707,1148.927612 899.099854,1133.889404 919.190063,1133.483887 
	C936.081848,1133.142822 948.688354,1146.281250 952.011414,1162.262573 
	C954.149841,1172.546631 951.377991,1181.592896 945.840027,1190.766113 
	C938.275269,1199.808472 929.068054,1203.937622 918.019714,1204.162842 
z"/>
<path fill="#4C6971" opacity="1.000000" stroke="none" 
	d="
M691.249329,551.252869 
	C699.674500,543.307007 710.456970,541.747986 719.407227,546.964600 
	C729.151855,552.644226 735.148499,565.921326 732.492432,575.936035 
	C727.702209,593.996887 710.891052,601.412048 694.864807,592.353271 
	C688.242676,588.610107 685.757385,581.761230 684.396362,574.981567 
	C682.660339,566.334351 684.438049,558.104431 691.249329,551.252869 
z"/>
<path fill="#4C6971" opacity="1.000000" stroke="none" 
	d="
M800.123596,1278.621216 
	C809.988647,1282.576538 814.698120,1290.144287 815.852966,1299.781006 
	C817.142700,1310.543701 813.294495,1319.668457 803.855835,1325.293335 
	C793.751160,1331.314941 783.574829,1329.179199 775.018372,1320.167847 
	C761.538086,1305.971069 767.966187,1282.958008 786.655640,1277.906738 
	C790.687195,1276.817261 795.385315,1278.194092 800.123596,1278.621216 
z"/>
<path fill="#4C6971" opacity="1.000000" stroke="none" 
	d="
M619.229004,530.719604 
	C613.493042,523.789917 612.432556,516.565735 616.149536,508.681976 
	C619.143677,502.331390 624.183167,499.199982 631.111633,499.018829 
	C640.043030,498.785248 646.402527,503.909515 649.277344,513.576538 
	C651.646912,521.544495 647.971924,530.534607 640.548218,534.930542 
	C633.780701,538.937927 626.066040,537.490845 619.229004,530.719604 
z"/>
<path fill="#4C6971" opacity="1.000000" stroke="none" 
	d="
M736.043884,1391.163574 
	C728.765991,1393.084595 723.811340,1389.921997 719.546204,1385.011719 
	C714.523132,1379.228760 714.665710,1368.400146 719.838867,1361.352661 
	C723.918945,1355.794067 732.191345,1353.307617 738.512817,1356.440552 
	C745.144348,1359.727173 750.819336,1366.223755 749.996582,1375.159668 
	C749.297546,1382.751343 744.247009,1388.853394 736.043884,1391.163574 
z"/>
<path fill="#4C6971" opacity="1.000000" stroke="none" 
	d="
M833.014709,235.102737 
	C836.056335,240.493668 833.111694,244.329681 830.235962,247.885071 
	C827.758911,250.947495 821.361572,250.237320 818.266479,246.528717 
	C815.788086,243.559113 813.685852,239.742294 816.061340,236.086395 
	C817.884216,233.281036 820.809082,230.254990 823.829834,229.401871 
	C827.606750,228.335129 831.113281,230.802902 833.014709,235.102737 
z"/>
<path fill="#4C6971" opacity="1.000000" stroke="none" 
	d="
M865.979248,285.917969 
	C862.840698,281.274841 863.678345,276.791321 867.155884,273.879150 
	C869.422302,271.981232 873.626221,271.110413 876.617981,271.658478 
	C881.431335,272.540253 883.854187,277.282532 883.325806,281.509735 
	C882.921326,284.745056 879.937500,288.190979 877.198181,290.447174 
	C874.610596,292.578369 868.828979,289.906708 865.979248,285.917969 
z"/>
<path fill="#5B4ECB" opacity="1.000000" stroke="none" 
	d="
M959.158691,1127.225342 
	C965.455566,1127.033936 972.205872,1128.539062 978.231506,1127.070557 
	C993.932739,1123.244019 1002.254700,1111.825928 1004.906372,1096.377197 
	C1008.550659,1075.145264 994.488525,1057.823364 978.203308,1052.330444 
	C979.695435,1052.287720 981.598450,1052.100708 983.174866,1052.730835 
	C1004.502197,1061.255737 1014.975769,1089.172729 1003.493835,1109.415283 
	C995.489807,1123.526367 984.093079,1131.450684 967.626160,1130.810547 
	C964.806946,1130.701050 962.061462,1128.696167 959.158691,1127.225342 
z"/>
<path fill="#4C6971" opacity="1.000000" stroke="none" 
	d="
M769.657715,215.393066 
	C767.245972,219.461426 764.885986,222.861237 759.662292,220.371124 
	C753.258972,217.318726 750.636353,212.726318 752.392944,207.425415 
	C753.820679,203.116852 758.366638,200.417984 763.069824,201.086624 
	C768.964661,201.924713 771.940247,208.081726 769.657715,215.393066 
z"/>
<path fill="#4C6971" opacity="1.000000" stroke="none" 
	d="
M700.997437,227.853500 
	C695.940796,232.424713 692.624634,232.995697 688.908386,230.252487 
	C685.358459,227.632034 683.434509,221.965973 684.879395,218.387222 
	C687.075867,212.947327 691.753479,210.639282 696.815186,212.497849 
	C701.463196,214.204544 704.071106,219.820450 702.479431,224.829117 
	C702.181580,225.766327 701.610474,226.616714 700.997437,227.853500 
z"/>
<path fill="#4C6971" opacity="1.000000" stroke="none" 
	d="
M645.677856,258.663666 
	C645.969604,265.611847 643.389771,269.542938 638.101379,270.760559 
	C634.333496,271.628082 629.703247,268.683105 627.991516,264.330292 
	C626.006287,259.282043 627.808228,254.542374 632.599060,252.210831 
	C637.361755,249.893021 641.999268,251.519547 644.719238,256.476349 
	C645.038818,257.058777 645.283386,257.682343 645.677856,258.663666 
z"/>
<path fill="#4C6971" opacity="1.000000" stroke="none" 
	d="
M558.581787,376.969849 
	C557.321777,367.650604 561.605713,362.213348 568.524292,363.762085 
	C573.335754,364.839111 576.511658,368.473175 576.751953,373.176666 
	C576.929138,376.645203 573.310547,381.994965 569.881226,382.722260 
	C564.909851,383.776550 561.075012,381.998871 558.581787,376.969849 
z"/>
<path fill="#4C6971" opacity="1.000000" stroke="none" 
	d="
M586.194702,310.772217 
	C587.464355,303.782074 590.818237,300.343506 595.910278,300.379181 
	C599.595032,300.404968 604.153687,304.581360 604.871521,308.589050 
	C605.734680,313.407379 602.906494,318.259094 598.423218,319.651428 
	C593.743469,321.104767 589.733582,319.242065 587.392944,314.446472 
	C586.886719,313.409241 586.619934,312.255188 586.194702,310.772217 
z"/>
<path fill="#4C6971" opacity="1.000000" stroke="none" 
	d="
M576.058594,454.715454 
	C572.057983,459.799927 568.172119,461.276581 563.967163,459.347809 
	C559.846619,457.457733 558.308105,453.583374 558.559937,449.585480 
	C558.850098,444.980804 561.580444,441.718079 566.517090,440.719482 
	C573.039917,439.400055 578.147156,446.513367 576.058594,454.715454 
z"/>
<path fill="#5B4ECB" opacity="1.000000" stroke="none" 
	d="
M992.158203,1040.224609 
	C1004.201111,1042.699341 1014.998596,1039.747559 1024.704224,1032.153198 
	C1032.121460,1026.349487 1036.366821,1018.569458 1037.885132,1009.479553 
	C1040.440186,994.182739 1035.948364,981.038879 1024.766113,970.220825 
	C1024.061523,969.539185 1023.550049,968.658081 1022.875061,967.542603 
	C1026.863281,971.182251 1032.393311,974.434082 1034.733398,979.239380 
	C1044.985474,1000.291626 1044.638428,1012.596619 1030.232422,1030.438965 
	C1023.043274,1039.343018 1011.947754,1043.607422 1000.116150,1043.752197 
	C997.517822,1043.783936 994.893433,1041.683960 992.158203,1040.224609 
z"/>
<path fill="#4C6971" opacity="1.000000" stroke="none" 
	d="
M689.364685,1465.835449 
	C683.286560,1462.998535 680.836365,1459.087402 682.379639,1454.645142 
	C683.651794,1450.983276 686.185303,1448.078979 690.297424,1448.269043 
	C693.977661,1448.438965 696.972900,1450.736084 697.743103,1454.493652 
	C698.565430,1458.505615 698.223633,1462.573975 693.991821,1464.860840 
	C692.753479,1465.530151 691.171753,1465.563965 689.364685,1465.835449 
z"/>
<path fill="#5B4ECB" opacity="1.000000" stroke="none" 
	d="
M285.726807,1481.918213 
	C284.959198,1481.970337 283.760681,1482.001343 283.157562,1481.417236 
	C273.376556,1471.947266 263.670929,1462.399292 253.874908,1452.542114 
	C254.717865,1452.561646 255.868668,1452.665283 256.515533,1453.290527 
	C266.240295,1462.690308 275.898743,1472.158691 285.726807,1481.918213 
z"/>
<path fill="#5B4ECB" opacity="1.000000" stroke="none" 
	d="
M918.235596,1204.434570 
	C929.068054,1203.937622 938.275269,1199.808472 945.677979,1191.071289 
	C944.014282,1193.640747 942.627136,1197.228638 940.010742,1198.977417 
	C933.617554,1203.250610 926.763306,1207.092041 918.235596,1204.434570 
z"/>
<path fill="#5B4ECB" opacity="1.000000" stroke="none" 
	d="
M1045.108887,28.206921 
	C1048.803955,28.718269 1052.629395,29.569017 1056.744385,30.651600 
	C1053.666382,33.149708 1048.786865,32.182835 1045.108887,28.206921 
z"/>
<path fill="#5B4ECB" opacity="1.000000" stroke="none" 
	d="
M292.730042,1488.853271 
	C290.505463,1487.088379 288.226440,1484.977783 285.874451,1482.541260 
	C288.092834,1484.312744 290.384186,1486.410156 292.730042,1488.853271 
z"/>
<path fill="#5B4ECB" opacity="1.000000" stroke="none" 
	d="
M300.725769,1494.916504 
	C298.337524,1493.383911 295.794037,1491.542236 293.088989,1489.408813 
	C295.475128,1490.947266 298.022827,1492.777344 300.725769,1494.916504 
z"/>
<path fill="#5B4ECB" opacity="1.000000" stroke="none" 
	d="
M306.730042,1500.853516 
	C304.838440,1499.421143 302.892365,1497.643311 300.873779,1495.540283 
	C302.759399,1496.979614 304.717468,1498.743896 306.730042,1500.853516 
z"/>
<path fill="#5B4ECB" opacity="1.000000" stroke="none" 
	d="
M335.726685,1523.852051 
	C334.270203,1523.030762 332.753998,1521.860474 331.082153,1520.403931 
	C332.506683,1521.246216 334.086853,1522.374756 335.726685,1523.852051 
z"/>
<path fill="#5B4ECB" opacity="1.000000" stroke="none" 
	d="
M326.726685,1516.852051 
	C325.270203,1516.030640 323.754028,1514.860474 322.082153,1513.404053 
	C323.506622,1514.246338 325.086792,1515.374756 326.726685,1516.852051 
z"/>
<path fill="#5B4ECB" opacity="1.000000" stroke="none" 
	d="
M321.726685,1512.852051 
	C320.270203,1512.030762 318.754028,1510.860474 317.082153,1509.404053 
	C318.506622,1510.246338 320.086792,1511.374756 321.726685,1512.852051 
z"/>
<path fill="#5B4ECB" opacity="1.000000" stroke="none" 
	d="
M316.726685,1508.852051 
	C315.270233,1508.030640 313.754028,1506.860474 312.082153,1505.404053 
	C313.506592,1506.246338 315.086761,1507.374878 316.726685,1508.852051 
z"/>
<path fill="#5B4ECB" opacity="1.000000" stroke="none" 
	d="
M311.726685,1504.852051 
	C310.270203,1504.030640 308.754028,1502.860474 307.082153,1501.404053 
	C308.506653,1502.246216 310.086823,1503.374756 311.726685,1504.852051 
z"/>
<path fill="#5B4ECB" opacity="1.000000" stroke="none" 
	d="
M1070.085449,35.174282 
	C1071.149170,35.055584 1072.318604,35.243431 1073.760986,35.657276 
	C1072.481689,38.339649 1071.261108,37.627575 1070.085449,35.174282 
z"/>
<path fill="#5B4ECB" opacity="1.000000" stroke="none" 
	d="
M1061.065063,32.442856 
	C1061.851685,32.260277 1062.700439,32.356777 1063.791870,32.668488 
	C1063.065430,32.829769 1062.096313,32.775848 1061.065063,32.442856 
z"/>
<path fill="#5B4ECB" opacity="1.000000" stroke="none" 
	d="
M351.727356,1534.926514 
	C350.580750,1534.445801 349.278625,1533.665649 347.892487,1532.549805 
	C349.062958,1533.018433 350.317413,1533.822754 351.727356,1534.926514 
z"/>
<path fill="#5B4ECB" opacity="1.000000" stroke="none" 
	d="
M355.727356,1537.926514 
	C354.580719,1537.445923 353.278595,1536.665771 351.892487,1535.549927 
	C353.062958,1536.018433 354.317413,1536.822754 355.727356,1537.926514 
z"/>
<path fill="#5B4ECB" opacity="1.000000" stroke="none" 
	d="
M343.721069,1529.863770 
	C342.605835,1529.361328 341.417938,1528.521362 340.078064,1527.399414 
	C341.166870,1527.920288 342.407684,1528.723145 343.721069,1529.863770 
z"/>
<path fill="#5B4ECB" opacity="1.000000" stroke="none" 
	d="
M362.727356,1542.926514 
	C361.580750,1542.445801 360.278625,1541.665649 358.892456,1540.549805 
	C360.062897,1541.018555 361.317352,1541.822876 362.727356,1542.926514 
z"/>
<path fill="#5B4ECB" opacity="1.000000" stroke="none" 
	d="
M339.721069,1526.863770 
	C338.605774,1526.361450 337.417908,1525.521362 336.078064,1524.399414 
	C337.166870,1524.920410 338.407654,1525.723267 339.721069,1526.863770 
z"/>
<path fill="#5B4ECB" opacity="1.000000" stroke="none" 
	d="
M330.721100,1519.863770 
	C329.605774,1519.361450 328.417908,1518.521362 327.078064,1517.399414 
	C328.166931,1517.920288 329.407715,1518.723145 330.721100,1519.863770 
z"/>
<path fill="#5B4ECB" opacity="1.000000" stroke="none" 
	d="
M1081.084106,38.693188 
	C1082.016235,38.652321 1083.053345,38.912632 1084.206055,39.425102 
	C1083.277344,39.449631 1082.233276,39.221996 1081.084106,38.693188 
z"/>
<path fill="#5B4ECB" opacity="1.000000" stroke="none" 
	d="
M412.896881,1576.507202 
	C411.946045,1576.095459 410.898285,1575.352173 409.653992,1574.339600 
	C410.571594,1574.772217 411.685760,1575.473877 412.896881,1576.507202 
z"/>
<path fill="#5B4ECB" opacity="1.000000" stroke="none" 
	d="
M1022.692139,966.910645 
	C1021.592102,966.682739 1020.271179,966.163757 1018.706421,965.357849 
	C1019.798828,965.587097 1021.135071,966.103271 1022.692139,966.910645 
z"/>
<path fill="#5B4ECB" opacity="1.000000" stroke="none" 
	d="
M383.712769,1556.933838 
	C382.702728,1556.706543 381.499207,1556.199585 380.117584,1555.397217 
	C381.132782,1555.619141 382.326050,1556.136719 383.712769,1556.933838 
z"/>
<path fill="#5B4ECB" opacity="1.000000" stroke="none" 
	d="
M457.938965,1601.560547 
	C457.186584,1601.284302 456.378174,1600.730103 455.324097,1600.007324 
	C456.013245,1600.320068 456.948059,1600.801392 457.938965,1601.560547 
z"/>
<path fill="#5B4ECB" opacity="1.000000" stroke="none" 
	d="
M347.712769,1531.933838 
	C346.702728,1531.706543 345.499207,1531.199585 344.117584,1530.397217 
	C345.132782,1530.619141 346.326050,1531.136841 347.712769,1531.933838 
z"/>
<path fill="#5B4ECB" opacity="1.000000" stroke="none" 
	d="
M368.724243,1546.941528 
	C367.943329,1546.759521 366.986359,1546.308105 365.930267,1545.527100 
	C366.736816,1545.689087 367.642517,1546.180542 368.724243,1546.941528 
z"/>
<path fill="#5B4ECB" opacity="1.000000" stroke="none" 
	d="
M430.952972,1586.807617 
	C430.215332,1586.571777 429.523712,1586.084839 428.644073,1585.337158 
	C429.303711,1585.569702 430.151337,1586.063232 430.952972,1586.807617 
z"/>
<path fill="#5B4ECB" opacity="1.000000" stroke="none" 
	d="
M424.761475,1583.242920 
	C423.919678,1582.935547 422.916840,1582.282837 421.687622,1581.347656 
	C422.507629,1581.676025 423.554016,1582.286743 424.761475,1583.242920 
z"/>
<path fill="#5B4ECB" opacity="1.000000" stroke="none" 
	d="
M418.984100,1579.864136 
	C418.451935,1579.749146 417.997803,1579.439819 417.310242,1578.984619 
	C417.738647,1579.115723 418.400391,1579.392822 418.984100,1579.864136 
z"/>
<path fill="#5B4ECB" opacity="1.000000" stroke="none" 
	d="
M407.780701,1573.270508 
	C407.022491,1572.955811 406.136139,1572.313599 405.093903,1571.380371 
	C405.842865,1571.707397 406.747681,1572.325195 407.780701,1573.270508 
z"/>
<path fill="#5B4ECB" opacity="1.000000" stroke="none" 
	d="
M404.693634,1570.862793 
	C403.870575,1570.650879 402.879150,1570.131958 401.673950,1569.340942 
	C402.481842,1569.564575 403.503540,1570.060303 404.693634,1570.862793 
z"/>
<path fill="#5B4ECB" opacity="1.000000" stroke="none" 
	d="
M399.780701,1568.270508 
	C399.022522,1567.955811 398.136139,1567.313599 397.093933,1566.380371 
	C397.842926,1566.707275 398.747742,1567.325073 399.780701,1568.270508 
z"/>
<path fill="#5B4ECB" opacity="1.000000" stroke="none" 
	d="
M396.693665,1565.862793 
	C395.870605,1565.650879 394.879181,1565.131958 393.673950,1564.340942 
	C394.481842,1564.564575 395.503540,1565.060303 396.693665,1565.862793 
z"/>
<path fill="#5B4ECB" opacity="1.000000" stroke="none" 
	d="
M389.724243,1560.941528 
	C388.943298,1560.759521 387.986359,1560.308105 386.930267,1559.527100 
	C387.736816,1559.689087 388.642517,1560.180542 389.724243,1560.941528 
z"/>
<path fill="#5B4ECB" opacity="1.000000" stroke="none" 
	d="
M386.724243,1558.941528 
	C385.943329,1558.759521 384.986359,1558.308105 383.930298,1557.527100 
	C384.736847,1557.689087 385.642548,1558.180542 386.724243,1558.941528 
z"/>
<path fill="#5B4ECB" opacity="1.000000" stroke="none" 
	d="
M358.724243,1539.941528 
	C357.943298,1539.759521 356.986359,1539.308105 355.930298,1538.527100 
	C356.736847,1538.689087 357.642548,1539.180542 358.724243,1539.941528 
z"/>
<path fill="#5B4ECB" opacity="1.000000" stroke="none" 
	d="
M377.724243,1552.941528 
	C376.943329,1552.759521 375.986359,1552.308105 374.930267,1551.527100 
	C375.736816,1551.689087 376.642517,1552.180542 377.724243,1552.941528 
z"/>
<path fill="#5B4ECB" opacity="1.000000" stroke="none" 
	d="
M374.724182,1550.941650 
	C373.943268,1550.759644 372.986328,1550.308228 371.930237,1549.527100 
	C372.736786,1549.689087 373.642487,1550.180542 374.724182,1550.941650 
z"/>
<path fill="#5B4ECB" opacity="1.000000" stroke="none" 
	d="
M371.724243,1548.941528 
	C370.943329,1548.759521 369.986359,1548.308105 368.930298,1547.527100 
	C369.736847,1547.689087 370.642548,1548.180542 371.724243,1548.941528 
z"/>
<path fill="#5B4ECB" opacity="1.000000" stroke="none" 
	d="
M365.724243,1544.941528 
	C364.943329,1544.759521 363.986359,1544.308105 362.930298,1543.527100 
	C363.736847,1543.689087 364.642548,1544.180542 365.724243,1544.941528 
z"/>
<path fill="#5B4ECB" opacity="1.000000" stroke="none" 
	d="
M391.797302,1563.270996 
	C391.267212,1562.990112 390.622284,1562.392944 389.913330,1561.462646 
	C390.460327,1561.738037 391.071411,1562.346436 391.797302,1563.270996 
z"/>
<path fill="#5B4ECB" opacity="1.000000" stroke="none" 
	d="
M379.730988,1554.891846 
	C379.211914,1554.702148 378.582184,1554.234741 377.891418,1553.463135 
	C378.427032,1553.643921 379.023682,1554.129028 379.730988,1554.891846 
z"/>
<path fill="#5B4ECB" opacity="1.000000" stroke="none" 
	d="
M440.814392,1592.362305 
	C440.354889,1592.274170 439.836517,1591.933350 439.130737,1591.343506 
	C439.547394,1591.432983 440.151428,1591.771240 440.814392,1592.362305 
z"/>
<path fill="#5B4ECB" opacity="1.000000" stroke="none" 
	d="
M1093.112183,42.077240 
	C1093.249756,42.077534 1093.666870,42.264313 1094.303467,42.711205 
	C1094.145996,42.735455 1093.768799,42.499588 1093.112183,42.077240 
z"/>
</svg>