<?xml version="1.0" encoding="UTF-8"?>
<svg version="1.1" xmlns="http://www.w3.org/2000/svg" width="454" height="459">
<path d="M0 0 C1.20968445 -0.00902847 2.4193689 -0.01805695 3.66571045 -0.02735901 C6.21363896 -0.04177232 8.76160374 -0.05072582 11.30957031 -0.05444336 C15.12111436 -0.06624903 18.93098796 -0.11545286 22.7421875 -0.16601562 C70.93308427 -0.48375007 118.76445067 17.93222037 156.22265625 48.03125 C157.73169453 49.22113535 159.32290386 50.30511299 160.921875 51.37109375 C160.921875 52.03109375 160.921875 52.69109375 160.921875 53.37109375 C161.73978516 53.71527344 161.73978516 53.71527344 162.57421875 54.06640625 C170.42016293 58.42671466 177.09709735 66.37303421 183.171875 72.93359375 C183.64955322 73.44583496 184.12723145 73.95807617 184.61938477 74.48583984 C187.921875 78.12292207 187.921875 78.12292207 187.921875 80.37109375 C188.581875 80.37109375 189.241875 80.37109375 189.921875 80.37109375 C191.5859375 82.390625 191.5859375 82.390625 193.546875 85.18359375 C194.26101563 86.19292969 194.97515625 87.20226562 195.7109375 88.2421875 C196.44054687 89.27472656 197.17015625 90.30726562 197.921875 91.37109375 C199.25405331 93.16361939 200.58735775 94.95530875 201.921875 96.74609375 C224.45357232 127.85919922 237.0899693 164.49322098 241.921875 202.37109375 C242.09460938 203.61205811 242.26734375 204.85302246 242.4453125 206.1315918 C242.96433307 210.31441198 243.09926649 214.44465062 243.125 218.65625 C243.13187836 219.42671661 243.13875671 220.19718323 243.14584351 220.99099731 C243.16295111 223.47191137 243.16930153 225.95262379 243.171875 228.43359375 C243.17354675 229.27991364 243.17521851 230.12623352 243.17694092 230.99819946 C243.17855687 244.65543267 242.3583569 257.90997291 239.921875 271.37109375 C239.7664624 272.27875488 239.6110498 273.18641602 239.45092773 274.12158203 C238.46283951 279.78636068 237.29111808 285.33557802 235.734375 290.87109375 C235.52151855 291.6295459 235.30866211 292.38799805 235.08935547 293.16943359 C232.51807802 302.08209891 229.33552441 310.75027732 225.921875 319.37109375 C225.50832764 320.41910156 225.50832764 320.41910156 225.08642578 321.48828125 C220.71102904 332.40977365 215.09015363 342.37108459 208.921875 352.37109375 C208.3134375 353.38042969 207.705 354.38976562 207.078125 355.4296875 C203.14376738 361.82301863 198.69187312 367.72718237 194.05859375 373.62109375 C191.87513667 376.36267576 191.87513667 376.36267576 189.921875 379.37109375 C189.261875 379.37109375 188.601875 379.37109375 187.921875 379.37109375 C187.550625 380.20640625 187.550625 380.20640625 187.171875 381.05859375 C184.5676175 385.87647013 180.81371369 389.57417796 176.921875 393.37109375 C176.035 394.29921875 175.148125 395.22734375 174.234375 396.18359375 C171.921875 398.37109375 171.921875 398.37109375 169.921875 398.37109375 C169.591875 399.36109375 169.261875 400.35109375 168.921875 401.37109375 C163.45675872 406.37109375 163.45675872 406.37109375 160.921875 406.37109375 C160.921875 407.03109375 160.921875 407.69109375 160.921875 408.37109375 C158.62857067 410.29844526 156.33036282 412.09688439 153.921875 413.87109375 C153.19782471 414.40718262 152.47377441 414.94327148 151.7277832 415.49560547 C126.31986175 434.07361797 97.90717389 447.65499446 67.296875 455.05859375 C66.4625293 455.2611377 65.62818359 455.46368164 64.76855469 455.67236328 C53.52440484 458.29424886 42.50367796 459.68389367 30.95703125 459.70703125 C29.76242783 459.71368805 28.5678244 459.72034485 27.33702087 459.72720337 C24.82357301 459.73725933 22.31009882 459.7420226 19.79663086 459.74169922 C16.02475967 459.7460472 12.25408503 459.78237663 8.48242188 459.8203125 C-6.48063513 459.89030282 -20.49919527 458.77172965 -35.078125 455.37109375 C-36.25656982 455.10361328 -37.43501465 454.83613281 -38.64916992 454.56054688 C-41.35389351 453.90733733 -44.0277153 453.19701806 -46.703125 452.43359375 C-47.61932617 452.17690918 -48.53552734 451.92022461 -49.47949219 451.65576172 C-56.26176558 449.70884179 -62.66894454 447.32790639 -69.078125 444.37109375 C-70.46214122 443.77667653 -71.84768788 443.18581573 -73.234375 442.59765625 C-93.25544156 434.03445497 -111.00002188 422.84144759 -128.078125 409.37109375 C-129.0475 408.60925781 -130.016875 407.84742188 -131.015625 407.0625 C-139.0266862 400.71652855 -139.0266862 400.71652855 -141.078125 398.37109375 C-141.078125 397.71109375 -141.078125 397.05109375 -141.078125 396.37109375 C-141.738125 396.37109375 -142.398125 396.37109375 -143.078125 396.37109375 C-143.078125 395.71109375 -143.078125 395.05109375 -143.078125 394.37109375 C-143.738125 394.37109375 -144.398125 394.37109375 -145.078125 394.37109375 C-146.703125 392.99609375 -146.703125 392.99609375 -148.078125 391.37109375 C-148.078125 390.71109375 -148.078125 390.05109375 -148.078125 389.37109375 C-148.738125 389.37109375 -149.398125 389.37109375 -150.078125 389.37109375 C-151.85546875 387.45703125 -151.85546875 387.45703125 -154.015625 384.74609375 C-154.82 383.73804688 -155.624375 382.73 -156.453125 381.69140625 C-156.88109375 381.1490332 -157.3090625 380.60666016 -157.75 380.04785156 C-159.0769908 378.37252567 -160.41965213 376.71087929 -161.765625 375.05078125 C-190.73719296 339.10016951 -211.41519283 292.46987149 -211.37890625 245.7578125 C-211.38319138 244.50458694 -211.3874765 243.25136139 -211.39189148 241.9601593 C-211.3990404 238.66034674 -211.39605739 235.3607206 -211.39031982 232.06091309 C-211.39082511 228.74561483 -211.41838137 225.43045631 -211.43945312 222.11523438 C-211.47236243 209.15784172 -211.23939432 196.97019232 -208.078125 184.37109375 C-207.63389351 182.274034 -207.19236882 180.17639853 -206.75390625 178.078125 C-198.04030758 139.62825127 -180.17872757 103.16790221 -152.94140625 74.41015625 C-151.03260732 72.50773943 -151.03260732 72.50773943 -150.078125 70.37109375 C-149.418125 70.37109375 -148.758125 70.37109375 -148.078125 70.37109375 C-148.078125 69.71109375 -148.078125 69.05109375 -148.078125 68.37109375 C-147.418125 68.37109375 -146.758125 68.37109375 -146.078125 68.37109375 C-145.583125 66.88609375 -145.583125 66.88609375 -145.078125 65.37109375 C-144.418125 65.37109375 -143.758125 65.37109375 -143.078125 65.37109375 C-143.078125 64.71109375 -143.078125 64.05109375 -143.078125 63.37109375 C-142.418125 63.37109375 -141.758125 63.37109375 -141.078125 63.37109375 C-141.078125 62.71109375 -141.078125 62.05109375 -141.078125 61.37109375 C-139.57421875 59.85546875 -139.57421875 59.85546875 -137.515625 58.12109375 C-136.42701172 57.19876953 -136.42701172 57.19876953 -135.31640625 56.2578125 C-134.57777344 55.63519531 -133.83914062 55.01257812 -133.078125 54.37109375 C-132.41167969 53.77941406 -131.74523437 53.18773437 -131.05859375 52.578125 C-130.44628906 52.03542969 -129.83398438 51.49273437 -129.203125 50.93359375 C-128.64882812 50.43988281 -128.09453125 49.94617187 -127.5234375 49.4375 C-126.078125 48.37109375 -126.078125 48.37109375 -124.078125 48.37109375 C-124.078125 47.71109375 -124.078125 47.05109375 -124.078125 46.37109375 C-108.49407433 34.07729273 -88.96287433 21.71812043 -70.078125 15.37109375 C-69.09328125 15.03722656 -68.1084375 14.70335937 -67.09375 14.359375 C-65.11010103 13.69569145 -63.12345306 13.04084643 -61.1328125 12.3984375 C-58.88068663 11.64100898 -56.6527466 10.81074091 -54.44140625 9.94140625 C-49.20575486 7.96314887 -43.81759879 6.65074856 -38.390625 5.30859375 C-37.39095703 5.05271484 -36.39128906 4.79683594 -35.36132812 4.53320312 C-23.59553962 1.59741626 -12.12693661 0.05790214 0 0 Z M-6.078125 56.37109375 C-6.078125 57.03109375 -6.078125 57.69109375 -6.078125 58.37109375 C-5.088125 58.37109375 -4.098125 58.37109375 -3.078125 58.37109375 C-3.078125 57.71109375 -3.078125 57.05109375 -3.078125 56.37109375 C-4.068125 56.37109375 -5.058125 56.37109375 -6.078125 56.37109375 Z M-24.078125 58.37109375 C-24.078125 59.36109375 -24.078125 60.35109375 -24.078125 61.37109375 C-23.418125 61.37109375 -22.758125 61.37109375 -22.078125 61.37109375 C-22.408125 60.38109375 -22.738125 59.39109375 -23.078125 58.37109375 C-23.408125 58.37109375 -23.738125 58.37109375 -24.078125 58.37109375 Z M10.921875 63.37109375 C11.251875 64.36109375 11.581875 65.35109375 11.921875 66.37109375 C12.581875 66.37109375 13.241875 66.37109375 13.921875 66.37109375 C13.921875 65.38109375 13.921875 64.39109375 13.921875 63.37109375 C12.931875 63.37109375 11.941875 63.37109375 10.921875 63.37109375 Z M-39.078125 69.37109375 C-39.078125 70.36109375 -39.078125 71.35109375 -39.078125 72.37109375 C-38.418125 71.71109375 -37.758125 71.05109375 -37.078125 70.37109375 C-37.738125 70.04109375 -38.398125 69.71109375 -39.078125 69.37109375 Z M24.921875 74.37109375 C24.921875 75.36109375 24.921875 76.35109375 24.921875 77.37109375 C25.581875 77.37109375 26.241875 77.37109375 26.921875 77.37109375 C26.921875 76.38109375 26.921875 75.39109375 26.921875 74.37109375 C26.261875 74.37109375 25.601875 74.37109375 24.921875 74.37109375 Z M-51.078125 83.37109375 C-51.078125 84.03109375 -51.078125 84.69109375 -51.078125 85.37109375 C-50.418125 85.37109375 -49.758125 85.37109375 -49.078125 85.37109375 C-49.078125 84.71109375 -49.078125 84.05109375 -49.078125 83.37109375 C-49.738125 83.37109375 -50.398125 83.37109375 -51.078125 83.37109375 Z M43.921875 89.37109375 C40.97130215 92.3216666 41.36633983 95.7078965 41.046875 99.68359375 C38.54786064 125.16141149 24.36918738 144.72373215 5.1328125 160.87304688 C2.77080793 162.77236441 0.37972519 164.62933887 -2.03100586 166.46630859 C-6.64911707 169.9854279 -10.93436854 173.73402234 -15.1875 177.69140625 C-17.078125 179.37109375 -17.078125 179.37109375 -19.078125 180.37109375 C-19.078125 181.03109375 -19.078125 181.69109375 -19.078125 182.37109375 C-19.738125 182.37109375 -20.398125 182.37109375 -21.078125 182.37109375 C-22.74479167 183.70442708 -22.74479167 183.70442708 -24.078125 185.37109375 C-24.078125 186.03109375 -24.078125 186.69109375 -24.078125 187.37109375 C-24.738125 187.37109375 -25.398125 187.37109375 -26.078125 187.37109375 C-27.6657783 189.06070644 -29.17541194 190.82426746 -30.640625 192.62109375 C-31.84912109 194.08289063 -31.84912109 194.08289063 -33.08203125 195.57421875 C-34.82780331 198.02034947 -35.68171028 199.45014321 -36.078125 202.37109375 C-36.738125 202.37109375 -37.398125 202.37109375 -38.078125 202.37109375 C-50.06827368 222.83001249 -57.04330511 242.53706042 -52.140625 266.68359375 C-48.61640032 278.11664191 -42.41490401 288.8938892 -34.0234375 297.390625 C-32.078125 299.37109375 -32.078125 299.37109375 -30.4453125 301.6328125 C-29.99414062 302.20644531 -29.54296875 302.78007812 -29.078125 303.37109375 C-28.418125 303.37109375 -27.758125 303.37109375 -27.078125 303.37109375 C-26.88089844 303.92152344 -26.68367188 304.47195313 -26.48046875 305.0390625 C-24.49424543 308.34205783 -21.65809688 310.37763721 -18.640625 312.68359375 C-18.07408203 313.13154297 -17.50753906 313.57949219 -16.92382812 314.04101562 C-8.12577206 320.86892522 1.51369109 326.3596408 11.234375 331.74609375 C38.37999174 346.97242008 58.64789416 361.94990936 68.921875 392.37109375 C69.9010652 395.04624137 70.9099468 397.70812481 71.921875 400.37109375 C73.58799405 400.41381475 75.25570385 400.41173207 76.921875 400.37109375 C77.251875 400.04109375 77.581875 399.71109375 77.921875 399.37109375 C77.16763509 380.13797614 64.91157155 362.69946396 51.59765625 349.73046875 C43.7225326 342.7865641 35.15622147 336.70918346 25.81640625 331.90625 C21.51228358 329.62349668 17.37705373 327.07154929 13.22265625 324.52880859 C6.94873871 320.24027786 6.94873871 320.24027786 -0.078125 318.37109375 C-0.078125 317.71109375 -0.078125 317.05109375 -0.078125 316.37109375 C-1.68011117 315.26317808 -3.33795342 314.23566683 -5.015625 313.24609375 C-9.95132222 310.2170806 -14.11513824 306.86384967 -18.30078125 302.875 C-19.94454769 301.15577967 -19.94454769 301.15577967 -22.078125 301.37109375 C-22.078125 300.71109375 -22.078125 300.05109375 -22.078125 299.37109375 C-22.738125 299.37109375 -23.398125 299.37109375 -24.078125 299.37109375 C-24.408125 298.38109375 -24.738125 297.39109375 -25.078125 296.37109375 C-25.738125 296.37109375 -26.398125 296.37109375 -27.078125 296.37109375 C-27.33078125 295.81292969 -27.5834375 295.25476563 -27.84375 294.6796875 C-29.26353005 292.02433937 -30.98224765 289.81248607 -32.828125 287.43359375 C-41.44183767 275.73460582 -45.43523998 263.96923087 -45.390625 249.55859375 C-45.40673828 248.52927734 -45.42285156 247.49996094 -45.43945312 246.43945312 C-45.44380023 239.56668364 -44.42367081 233.81933216 -42.078125 227.37109375 C-41.73652344 226.35660156 -41.39492187 225.34210938 -41.04296875 224.296875 C-36.42742623 212.5561984 -29.21401377 202.07334988 -20.4765625 193.0078125 C-18.86159329 191.47646418 -18.86159329 191.47646418 -19.078125 189.37109375 C-18.53285156 189.14550781 -17.98757812 188.91992188 -17.42578125 188.6875 C-14.37998971 186.97962687 -12.02514632 184.7003603 -9.515625 182.30859375 C-3.90510345 177.06384481 1.93046189 172.17786045 7.921875 167.37109375 C9.92400686 165.7487211 11.92404494 164.12376081 13.921875 162.49609375 C15.2521875 161.41714844 15.2521875 161.41714844 16.609375 160.31640625 C19.40076066 157.98035126 19.40076066 157.98035126 21.921875 155.37109375 C21.921875 154.71109375 21.921875 154.05109375 21.921875 153.37109375 C22.581875 153.37109375 23.241875 153.37109375 23.921875 153.37109375 C38.58061816 138.19534097 49.06644452 117.87357549 49.109375 96.55859375 C49.06213288 94.49568787 49.00533448 92.43285198 48.921875 90.37109375 C46.52468068 89.69150772 46.52468068 89.69150772 43.921875 89.37109375 Z M-59.078125 100.37109375 C-59.078125 101.03109375 -59.078125 101.69109375 -59.078125 102.37109375 C-58.088125 102.37109375 -57.098125 102.37109375 -56.078125 102.37109375 C-56.078125 101.71109375 -56.078125 101.05109375 -56.078125 100.37109375 C-57.068125 100.37109375 -58.058125 100.37109375 -59.078125 100.37109375 Z M-58.078125 121.37109375 C-58.078125 122.03109375 -58.078125 122.69109375 -58.078125 123.37109375 C-57.418125 123.37109375 -56.758125 123.37109375 -56.078125 123.37109375 C-56.078125 122.71109375 -56.078125 122.05109375 -56.078125 121.37109375 C-56.738125 121.37109375 -57.398125 121.37109375 -58.078125 121.37109375 Z M-42.078125 136.37109375 C-43.43430999 137.4964348 -43.43430999 137.4964348 -43.140625 140.43359375 C-43.12 141.40296875 -43.099375 142.37234375 -43.078125 143.37109375 C-39.49484747 144.37326439 -39.49484747 144.37326439 -36.078125 143.37109375 C-35.91125052 140.95463593 -35.91125052 140.95463593 -36.078125 138.37109375 C-36.738125 137.71109375 -37.398125 137.05109375 -38.078125 136.37109375 C-39.398125 136.37109375 -40.718125 136.37109375 -42.078125 136.37109375 Z M-22.203125 149.43359375 C-24.44627077 151.35322235 -24.44627077 151.35322235 -24.453125 154.93359375 C-24.43451908 158.43220129 -24.43451908 158.43220129 -22.078125 160.37109375 C-19.12043323 160.87119899 -19.12043323 160.87119899 -16.078125 160.37109375 C-13.9995642 158.79413743 -13.9995642 158.79413743 -13.078125 156.37109375 C-12.99787842 153.77219592 -12.99787842 153.77219592 -14.078125 151.37109375 C-16.98971953 148.64734403 -18.49017137 147.57711694 -22.203125 149.43359375 Z M16.984375 175.49609375 C14.73401997 178.20482735 14.73401997 178.20482735 14.359375 181.37109375 C15.06623462 185.1410117 16.10355715 186.77527467 18.921875 189.37109375 C22.46484597 190.57721153 24.17618568 190.65920099 27.671875 189.30859375 C30.55388191 186.82686558 31.2510787 185.09773988 31.921875 181.37109375 C31.05652517 177.98836259 29.88254355 175.31084211 26.921875 173.37109375 C22.51132123 172.71767838 20.6312748 172.85791091 16.984375 175.49609375 Z M34.484375 192.49609375 C32.76332716 195.66282178 31.99702894 197.76370449 31.921875 201.37109375 C33.52599348 204.90015442 34.66346862 206.19882283 37.921875 208.37109375 C41.41221227 208.68839714 44.01944727 208.72731522 47.296875 207.43359375 C49.85782781 204.18315365 50.13373212 200.44581237 49.921875 196.37109375 C48.69450276 193.07625468 47.97088281 192.40376562 44.921875 190.37109375 C39.15590547 189.59929265 39.15590547 189.59929265 34.484375 192.49609375 Z M47.921875 213.80859375 C45.92565314 216.58222214 45.62984037 218.60905839 45.859375 221.99609375 C46.39335951 224.96045638 46.91246909 226.35765674 48.671875 228.87109375 C51.29111787 230.61725567 52.76336707 231.29589118 55.921875 231.37109375 C59.85801516 229.82750937 61.55414076 228.92269511 63.921875 225.37109375 C64.19972932 223.41729876 64.19972932 223.41729876 64.109375 221.37109375 C64.10292969 220.69046875 64.09648437 220.00984375 64.08984375 219.30859375 C63.97885246 217.15351166 63.97885246 217.15351166 62.921875 214.37109375 C60.06598107 212.10317798 58.03866157 211.38986302 54.421875 210.80859375 C50.7443447 211.1007538 50.7443447 211.1007538 47.921875 213.80859375 Z M54.359375 238.37109375 C52.07696273 243.13438892 52.23687611 247.31609708 53.921875 252.37109375 C54.581875 252.37109375 55.241875 252.37109375 55.921875 252.37109375 C55.921875 253.03109375 55.921875 253.69109375 55.921875 254.37109375 C59.10690787 255.96361018 62.4551155 255.76239136 65.921875 255.37109375 C69.15800854 253.6285603 69.74582815 252.89923431 70.921875 249.37109375 C71.42213851 244.9520994 71.18968169 242.84623465 68.984375 238.93359375 C65.3950616 235.9302907 63.57538278 235.51739317 59.015625 235.859375 C56.67878436 236.27869404 56.67878436 236.27869404 54.359375 238.37109375 Z M53.421875 264.24609375 C51.31003968 268.64575067 51.58658622 272.57460143 51.921875 277.37109375 C52.581875 277.37109375 53.241875 277.37109375 53.921875 277.37109375 C53.921875 278.03109375 53.921875 278.69109375 53.921875 279.37109375 C57.33727779 281.47288008 59.94438915 281.93930601 63.921875 281.37109375 C66.79874068 279.13353156 68.50445214 277.36247305 69.921875 273.99609375 C69.921875 270.23222069 68.66458069 267.66978667 66.921875 264.37109375 C62.30904328 261.2958726 57.83599187 260.9355061 53.421875 264.24609375 Z M44.921875 289.37109375 C43.54936878 292.73997266 42.921875 295.42545568 42.921875 299.05859375 C44.45274217 302.59872407 46.51308352 303.69885642 49.921875 305.37109375 C53.98142092 305.45394163 55.56071246 304.64589134 58.796875 302.18359375 C61.14960938 299.54131338 61.14960938 299.54131338 61.359375 296.30859375 C60.92810721 293.41293861 60.6298906 291.72978196 58.921875 289.37109375 C53.86893148 285.64787221 49.88818576 285.31962971 44.921875 289.37109375 Z M31.984375 310.49609375 C29.94839348 314.08900231 29.58954539 317.15255185 30.671875 321.12109375 C31.85677333 323.65843906 31.85677333 323.65843906 34.921875 325.37109375 C38.75881087 325.78966857 41.03390564 325.91753644 44.359375 323.87109375 C46.56286802 320.34550491 46.71856784 317.42094903 45.921875 313.37109375 C44.58854167 310.70442708 44.58854167 310.70442708 41.921875 309.37109375 C38.4005653 308.75468742 35.16690085 308.64817551 31.984375 310.49609375 Z M-0.265625 349.05859375 C-2.25277183 351.23294108 -2.25277183 351.23294108 -2.578125 353.93359375 C-2.27106856 356.47469322 -2.27106856 356.47469322 -0.390625 358.24609375 C2.54109854 359.67233763 3.87514054 359.41339764 6.921875 358.37109375 C9.21117736 356.48970616 9.21117736 356.48970616 9.296875 353.43359375 C9.22644901 350.30940218 9.22644901 350.30940218 7.109375 348.49609375 C3.93245312 346.86224821 2.5784411 346.8645999 -0.265625 349.05859375 Z M-15.078125 369.37109375 C-15.75771103 371.76828807 -15.75771103 371.76828807 -16.078125 374.37109375 C-15.418125 375.03109375 -14.758125 375.69109375 -14.078125 376.37109375 C-11.47531932 376.05067978 -11.47531932 376.05067978 -9.078125 375.37109375 C-9.035404 373.7049747 -9.03748668 372.0372649 -9.078125 370.37109375 C-10.14457615 369.07475754 -10.14457615 369.07475754 -12.640625 369.30859375 C-13.445 369.32921875 -14.249375 369.34984375 -15.078125 369.37109375 Z M-25.078125 394.37109375 C-25.078125 395.03109375 -25.078125 395.69109375 -25.078125 396.37109375 C-24.418125 396.37109375 -23.758125 396.37109375 -23.078125 396.37109375 C-23.078125 395.71109375 -23.078125 395.05109375 -23.078125 394.37109375 C-23.738125 394.37109375 -24.398125 394.37109375 -25.078125 394.37109375 Z " fill="#5D51CA" transform="translate(211.078125,-0.37109375)"/>
<path d="M0 0 C0 3 0 3 -2.38671875 5.72729492 C-3.47931119 6.81941176 -4.5801754 7.90329204 -5.6875 8.98046875 C-6.26459717 9.55332108 -6.84169434 10.1261734 -7.4362793 10.71638489 C-9.28394376 12.54723565 -11.14175807 14.36739185 -13 16.1875 C-14.25328593 17.42574262 -15.50589901 18.66466668 -16.7578125 19.90429688 C-19.83078528 22.94416468 -22.91290242 25.97448016 -26 29 C-26 25.25983417 -25.0658409 24.54723807 -22.625 21.8125 C-21.99851562 21.09707031 -21.37203125 20.38164063 -20.7265625 19.64453125 C-19 18 -19 18 -17 18 C-17 17.34 -17 16.68 -17 16 C-16.34 16 -15.68 16 -15 16 C-14.67 15.01 -14.34 14.02 -14 13 C-13.34 13 -12.68 13 -12 13 C-12 12.34 -12 11.68 -12 11 C-11.34 11 -10.68 11 -10 11 C-10 10.34 -10 9.68 -10 9 C-8.3203125 7.34375 -8.3203125 7.34375 -6.125 5.5 C-4.00964496 3.71066742 -1.95980876 1.95980876 0 0 Z " fill="#CBCBE6" transform="translate(80,52)"/>
</svg>
