<?xml version="1.0" encoding="UTF-8"?>
<svg version="1.1" xmlns="http://www.w3.org/2000/svg" width="1670" height="1692">
<path d="M0 0 C1.48254729 0.1463748 2.96513187 0.29237252 4.44775391 0.43798828 C79.83501343 7.94822874 154.65752653 26.06092183 270.90869141 74.53222656 C274.06295766 76.02989271 277.22445744 77.51148815 280.38671875 78.9921875 C294.21136035 85.50256769 307.69897303 92.47959756 321 100 C322.04865234 100.59216309 323.09730469 101.18432617 324.17773438 101.79443359 C351.03211648 117.01006622 377.27288482 133.41564804 402.18310547 151.67041016 C404.28466643 153.20831676 406.3946057 154.73444603 408.50390625 156.26171875 C418.35981351 163.4292887 427.93036086 170.86139458 437.32373047 178.62353516 C439.56763312 180.46611062 441.84520998 182.26461681 444.125 184.0625 C453.2914685 191.37715668 462.11224391 199.12644358 470.79296875 207.0078125 C472.73626001 208.76193381 474.70359448 210.47972694 476.6875 212.1875 C488.58037734 222.61699595 499.80888794 233.70494513 511 244.875 C511.63787445 245.51028625 512.2757489 246.14557251 512.93295288 246.80010986 C525.29756159 259.12519346 525.29756159 259.12519346 530.56738281 265.32226562 C532.9129857 268.06919525 535.40435767 270.67850598 537.875 273.3125 C542.33504356 278.1064914 546.56309553 283.02510996 550.6640625 288.1328125 C553.33875557 291.41579697 556.10234125 294.61239704 558.875 297.8125 C564.24717832 304.04510588 569.39313723 310.42158573 574.41308594 316.94042969 C575.54894812 318.41460406 576.68798412 319.88633513 577.82910156 321.35644531 C586.67718446 332.76152276 595.18826461 344.31292115 603.20410156 356.31787109 C605.19385723 359.28952088 607.20224139 362.24815417 609.2109375 365.20703125 C625.79872353 389.71121427 640.9836452 414.93195698 655 441 C655.61584961 442.1451709 656.23169922 443.2903418 656.86621094 444.47021484 C696.59441044 518.80806655 724.06186128 599.70233359 751.25 765.5625 C751.37476212 766.96473312 751.37476212 766.96473312 751.50204468 768.39529419 C752.04638003 774.59368466 752.54352647 780.79453513 753 787 C753.05514771 787.73081787 753.11029541 788.46163574 753.16711426 789.21459961 C754.4159645 806.39790874 754.24568402 823.65591526 754.25 840.875 C754.25044186 841.68329884 754.25088371 842.49159767 754.25133896 843.32439041 C754.25906036 870.31517882 753.69705566 897.12315355 751 924 C750.91278687 924.87563599 750.82557373 925.75127197 750.73571777 926.65344238 C743.01486956 1003.31068301 725.76327922 1078.98036729 665 1225 C664.57509277 1225.8770459 664.15018555 1226.7540918 663.71240234 1227.65771484 C649.60840579 1256.75454482 633.03109209 1285.15330943 615 1312 C614.43458496 1312.84336914 613.86916992 1313.68673828 613.28662109 1314.55566406 C601.71798917 1331.7656565 589.77879581 1348.66589534 577 1365 C576.10780585 1366.15083467 575.21588637 1367.30188232 574.32421875 1368.453125 C569.34443812 1374.86087895 564.25448694 1381.15068008 558.98022461 1387.31860352 C556.13499673 1390.646228 553.36283697 1394.02019984 550.625 1397.4375 C546.00358063 1403.12284325 541.02046402 1408.43596025 536.0078125 1413.7734375 C533.69623155 1416.23883899 531.44890836 1418.74540233 529.25 1421.3125 C526.07319045 1425.0004299 522.63145266 1428.38370919 519.16796875 1431.80078125 C517.28958192 1433.70624393 515.53998057 1435.64672321 513.8125 1437.6875 C506.50316254 1446.19228985 498.34365294 1454.18558751 489.7890625 1461.4296875 C487.7668372 1463.20465381 485.88785373 1465.08299023 484 1467 C480.8288397 1470.21434731 477.54417247 1473.21750963 474.12109375 1476.16015625 C471.77508942 1478.19508819 469.4826355 1480.28290967 467.1875 1482.375 C462.86739209 1486.27363397 458.41928619 1489.97503858 453.89453125 1493.6328125 C451.38680768 1495.68366335 448.91960567 1497.77367563 446.46386719 1499.88623047 C438.98148179 1506.30857294 431.21150547 1512.30873712 423.3359375 1518.23925781 C420.89648079 1520.0780289 418.46374009 1521.92546269 416.03125 1523.7734375 C405.87114103 1531.46969075 395.5817671 1538.89588657 385 1546 C383.78112394 1546.82533469 382.56237285 1547.65085399 381.34375 1548.4765625 C357.36736428 1564.65773337 332.53579235 1579.42134347 307 1593 C305.44369873 1593.82951172 305.44369873 1593.82951172 303.85595703 1594.67578125 C225.1487013 1636.47684738 139.55523612 1664.84235514 -16 1687 C-16.67800659 1687.05113953 -17.35601318 1687.10227905 -18.05456543 1687.15496826 C-59.86536219 1690.27483312 -102.20214808 1690.3739786 -144 1687 C-144.7827832 1686.93683594 -145.56556641 1686.87367187 -146.37207031 1686.80859375 C-208.75474597 1681.69155883 -270.33170973 1669.96505689 -330 1651 C-330.64908325 1650.79459595 -331.2981665 1650.58919189 -331.96691895 1650.37756348 C-353.68240419 1643.499074 -374.94933847 1635.70172012 -396 1627 C-396.95522552 1626.60521454 -396.95522552 1626.60521454 -397.92974854 1626.20245361 C-425.33542938 1614.84259959 -452.3146133 1602.21939392 -478.14746094 1587.61181641 C-481.34404336 1585.8055996 -484.55126299 1584.01892691 -487.7578125 1582.23046875 C-501.90114764 1574.30710599 -515.66346733 1565.94393114 -529.13623047 1556.91503906 C-532.12484341 1554.91651562 -535.12557966 1552.93727128 -538.12890625 1550.9609375 C-561.82448722 1535.33193728 -584.30112922 1518.42392039 -606.24707031 1500.43261719 C-607.84381594 1499.12764458 -609.44881934 1497.8327926 -611.0546875 1496.5390625 C-616.69779401 1491.98301333 -622.11431239 1487.2410242 -627.453125 1482.33203125 C-629.58941749 1480.37594748 -631.74780657 1478.45812303 -633.9375 1476.5625 C-642.16808416 1469.38797857 -650.10831595 1461.97828366 -657.77368164 1454.20483398 C-660.48542251 1451.46804652 -663.24302719 1448.85885231 -666.1875 1446.375 C-669.99207176 1443.13291113 -673.21008483 1439.49454891 -676.5078125 1435.74609375 C-679.28593971 1432.6849285 -682.18281352 1429.77699518 -685.125 1426.875 C-688.98673589 1423.05653286 -692.71330181 1419.18328137 -696.234375 1415.046875 C-698.3943342 1412.54285151 -700.63487993 1410.12002302 -702.875 1407.6875 C-706.96880209 1403.19851943 -710.85469667 1398.58756524 -714.66796875 1393.859375 C-716.70448606 1391.3623387 -718.78257977 1388.90846052 -720.8840332 1386.46606445 C-727.3161798 1378.97396447 -733.32275701 1371.19191813 -739.26123047 1363.30517578 C-741.03257796 1360.95680973 -742.81446888 1358.61672831 -744.59765625 1356.27734375 C-770.86297437 1321.6996 -794.18692909 1284.99567917 -814.58203125 1246.6640625 C-815.52302617 1244.89613266 -816.46830461 1243.13047573 -817.41796875 1241.3671875 C-857.10629204 1167.6447678 -885.03798792 1086.88856134 -914 896 C-914.04203552 895.31570923 -914.08407104 894.63141846 -914.12738037 893.9263916 C-915.12289048 877.33515308 -915.24522904 860.7412996 -915.25 844.125 C-915.25044186 843.41621075 -915.25088371 842.70742149 -915.25133896 841.97715378 C-915.27850584 758.45897197 -903.86819535 674.70691598 -802 416 C-800.95661135 414.19555524 -799.91364575 412.39086578 -798.87109375 410.5859375 C-786.56720743 389.4052834 -773.25929775 368.91256342 -759 349 C-757.87496165 347.41799602 -756.74996148 345.83596489 -755.625 344.25390625 C-749.41221189 335.55163219 -743.01242478 327.03846008 -736.33837891 318.68554688 C-734.97745742 316.97161 -733.63308597 315.24586631 -732.29296875 313.515625 C-726.25119758 305.72551833 -719.97051245 298.18875671 -713.50732422 290.74560547 C-712.01564678 289.01812025 -710.53879474 287.27909785 -709.06640625 285.53515625 C-702.81692189 278.14599887 -696.35921964 270.99692493 -689.71484375 263.9609375 C-687.18250671 261.27898989 -684.69124027 258.5628968 -682.2124939 255.83137512 C-676.42236147 249.46233156 -670.45440209 243.29884181 -664.35571289 237.2253418 C-662.79910611 235.67415273 -661.24799829 234.11760608 -659.69726562 232.56054688 C-654.87494783 227.73502215 -650.00881303 223.01340598 -644.8215332 218.57641602 C-641.68304173 215.86026008 -638.69952715 212.97959575 -635.6875 210.125 C-630.54630279 205.29019802 -625.3137549 200.67260007 -619.796875 196.265625 C-616.53168485 193.62063857 -613.36244981 190.87691391 -610.1875 188.125 C-603.29660439 182.18515261 -596.20705267 176.54955041 -589 171 C-588.22769043 170.40171387 -587.45538086 169.80342773 -586.65966797 169.18701172 C-574.02882234 159.40948272 -561.19143601 150.00724143 -548 141 C-547.34902344 140.55495117 -546.69804688 140.10990234 -546.02734375 139.65136719 C-541.71780044 136.71657734 -537.3703429 133.84333098 -533 131 C-531.81446533 130.2275293 -531.81446533 130.2275293 -530.60498047 129.43945312 C-509.51955678 115.74730832 -487.83066362 103.24739368 -465.65087891 91.41943359 C-463.325949 90.17453191 -461.01060284 88.91433517 -458.69921875 87.64453125 C-445.4635228 80.42092689 -431.740281 74.19173379 -418 68 C-416.89285645 67.50097168 -415.78571289 67.00194336 -414.64501953 66.48779297 C-339.41183775 32.84712221 -258.57734103 11.19468363 -161 0 C-160.19888794 -0.08463501 -159.39777588 -0.16927002 -158.5723877 -0.25646973 C-106.47479316 -5.71206613 -52.08572494 -5.3438508 0 0 Z " fill="#C1C1C1" transform="translate(915,3)"/>
<path d="M0 0 C1.1034375 -0.00773437 2.206875 -0.01546875 3.34375 -0.0234375 C8.10322232 0.57738698 10.62507679 2.37855967 13.75 5.9375 C16.58701276 9.88905348 16.70035638 12.80052508 16.7734375 17.5390625 C16.79222961 18.63620323 16.79222961 18.63620323 16.81140137 19.75550842 C17.09118809 40.1755173 15.506616 59.35262572 11.5 79.375 C11.17104736 81.08453857 11.17104736 81.08453857 10.83544922 82.82861328 C-0.3523577 140.00794405 -30.63719653 190.47764917 -69.4765625 233.1328125 C-71.23342396 235.07960493 -72.93220252 237.06035882 -74.625 239.0625 C-82.23568272 247.79607033 -90.6400554 256.17585845 -99.4921875 263.6484375 C-101.62984604 265.48665749 -103.69702286 267.39338774 -105.76293945 269.31152344 C-110.92887234 274.10712396 -116.22437559 278.64173898 -121.71875 283.0625 C-124.74020855 285.57472396 -127.62422686 288.19919631 -130.5 290.875 C-135.0285219 295.08404051 -139.69976222 299.04942927 -144.515625 302.92578125 C-148.09275966 305.86146637 -151.57747993 308.89359421 -155.0625 311.9375 C-159.95111345 316.20184038 -164.89785989 320.34888949 -169.9921875 324.3671875 C-174.67169449 328.11370867 -179.21974683 332.01789282 -183.77929688 335.90869141 C-185.51105917 337.38442415 -187.24742194 338.8546012 -188.984375 340.32421875 C-196.38906826 346.60661403 -203.61338819 353.04829209 -210.69726562 359.68994141 C-212.68155676 361.54470542 -214.67660318 363.38752511 -216.671875 365.23046875 C-224.82993554 372.79655911 -232.65451865 380.51401735 -240.07617188 388.80273438 C-241.53583491 390.41457078 -243.02080555 391.99887416 -244.515625 393.578125 C-251.11429311 400.56482567 -257.16962881 407.81543985 -263.0078125 415.44580078 C-264.59790516 417.5015783 -266.21770982 419.53114811 -267.84375 421.55859375 C-311.97177986 476.8478403 -341.07363761 546.69367574 -333.5 618.375 C-332.06466341 631.05820403 -329.33907367 643.21267879 -325.5 655.375 C-325.22559082 656.25140137 -324.95118164 657.12780273 -324.66845703 658.03076172 C-313.95145678 691.73392061 -296.39136196 722.45319312 -273.5 749.375 C-272.32244141 750.8290625 -272.32244141 750.8290625 -271.12109375 752.3125 C-264.31706013 760.6171982 -256.83505026 768.2283114 -249.25 775.8125 C-248.73057831 776.33282806 -248.21115662 776.85315613 -247.67599487 777.38925171 C-241.79761303 783.26647418 -235.84966918 789.00281542 -229.5 794.375 C-228.44377258 795.28748519 -227.38777086 796.20023171 -226.33203125 797.11328125 C-192.66462176 825.81551004 -155.12652305 849.00421317 -116.44140625 870.2578125 C-113.98169161 871.60923092 -111.52201819 872.96072409 -109.0625 874.3125 C-108.44873505 874.64977112 -107.83497009 874.98704224 -107.2026062 875.33453369 C-95.79929754 881.60630661 -84.5303799 888.08979284 -73.32470703 894.70898438 C-70.54242478 896.34997781 -67.75443145 897.98083754 -64.96484375 899.609375 C-27.1962846 921.70581618 -27.1962846 921.70581618 -10.2421875 935.01367188 C-8.53884783 936.34464469 -6.8201882 937.65230177 -5.09375 938.953125 C6.25694143 947.52637719 17.02660485 956.75322186 27.5 966.375 C28.08604004 966.91060547 28.67208008 967.44621094 29.27587891 967.99804688 C43.01735876 980.57558343 43.01735876 980.57558343 47.9296875 986.5 C49.04053874 987.82638954 50.19689892 989.11527437 51.3828125 990.375 C86.67591454 1027.88206047 120.8691356 1088.67649334 122.1875 1141.3125 C121.99964344 1146.87419268 121.29960532 1150.34203942 117.203125 1154.2109375 C111.55200495 1158.07340029 106.22634516 1158.31496362 99.5 1157.375 C95.1954773 1155.67401926 92.37966149 1153.22292061 90.37768555 1149.01733398 C88.03257354 1142.33348729 86.31615772 1135.66615895 84.8125 1128.75 C80.13967916 1108.42696214 72.59236759 1089.11115366 63.5 1070.375 C62.98300537 1069.30209717 62.98300537 1069.30209717 62.45556641 1068.20751953 C52.1952859 1047.18586374 38.35711393 1027.78303735 22.53515625 1010.59375 C20.7045558 1008.59800901 18.94163517 1006.56269389 17.1875 1004.5 C9.89153179 996.1593435 2.01349415 988.53578189 -6.6640625 981.6484375 C-8.67467276 980.03662597 -10.63909902 978.41139654 -12.5859375 976.7265625 C-13.39140015 976.0315564 -13.39140015 976.0315564 -14.21313477 975.32250977 C-15.70341939 974.03196105 -17.18975909 972.73686076 -18.67578125 971.44140625 C-28.70053323 963.14611307 -39.80634027 956.021491 -50.625 948.8125 C-51.26484833 948.38602173 -51.90469666 947.95954346 -52.56393433 947.5201416 C-74.36381849 933.02152414 -96.82034358 919.88038724 -119.81494141 907.38085938 C-126.09754654 903.96436728 -132.36203453 900.51482885 -138.625 897.0625 C-139.23549194 896.7260144 -139.84598389 896.38952881 -140.47497559 896.04284668 C-150.89954265 890.29301705 -161.25957348 884.44727106 -171.5 878.375 C-172.2209082 877.94977051 -172.94181641 877.52454102 -173.68457031 877.08642578 C-202.86706448 859.81158194 -231.0494289 839.87727827 -255.91015625 816.75390625 C-257.94183184 814.8877065 -260.00004652 813.08726594 -262.09375 811.29296875 C-267.07708587 806.94473531 -271.76166128 802.29940408 -276.43579102 797.62451172 C-277.92641615 796.13606763 -279.42487017 794.65582723 -280.92382812 793.17578125 C-287.23452887 786.90144311 -292.94569363 780.33850276 -298.5 773.375 C-299.43485909 772.27323934 -300.3762011 771.17689432 -301.328125 770.08984375 C-314.16144929 755.37291864 -324.91995811 739.36962452 -334.5 722.375 C-335.00418457 721.48184082 -335.50836914 720.58868164 -336.02783203 719.66845703 C-344.34133124 704.76431326 -350.76625985 689.43391934 -356.5 673.375 C-356.77956543 672.60124023 -357.05913086 671.82748047 -357.34716797 671.03027344 C-362.80695768 655.81752603 -366.11483029 640.71161648 -367.75 624.6875 C-367.87557785 623.49102844 -367.87557785 623.49102844 -368.00369263 622.27038574 C-373.36849008 570.41046252 -363.55613616 521.49949122 -341.5 474.375 C-341.08556641 473.48039062 -340.67113281 472.58578125 -340.24414062 471.6640625 C-329.72587837 449.1598735 -316.48178989 428.16150465 -301.5 408.375 C-300.61975552 407.1979437 -299.73954554 406.02086159 -298.859375 404.84375 C-293.02813695 397.10651591 -286.82589126 389.70794969 -280.5 382.375 C-279.54287109 381.26511719 -279.54287109 381.26511719 -278.56640625 380.1328125 C-276.88877235 378.20333979 -275.19792956 376.28662779 -273.5 374.375 C-272.57767578 373.33085938 -272.57767578 373.33085938 -271.63671875 372.265625 C-251.60070342 349.7769901 -251.60070342 349.7769901 -240.6640625 340.28515625 C-238.47402238 338.3520703 -236.42234614 336.33291779 -234.375 334.25 C-230.58237162 330.41222128 -226.60187666 326.87742342 -222.5 323.375 C-221.44635615 322.46905048 -220.39299323 321.56277417 -219.33984375 320.65625 C-215.73321672 317.55469302 -212.11809494 314.46316704 -208.5 311.375 C-207.92491699 310.88386719 -207.34983398 310.39273437 -206.75732422 309.88671875 C-200.563365 304.60253624 -194.32658885 299.38709066 -187.94921875 294.32421875 C-179.55305173 287.64210178 -171.34614139 280.7390658 -163.17041016 273.79101562 C-161.49624159 272.37181397 -159.81728525 270.95849229 -158.13671875 269.546875 C-152.25378583 264.60070388 -146.4523596 259.59018649 -140.76171875 254.421875 C-138.69326125 252.5499031 -136.60439086 250.7063661 -134.5 248.875 C-126.17235702 241.60604965 -118.11187388 234.14784332 -110.3125 226.3125 C-109.46236328 225.46623047 -108.61222656 224.61996094 -107.73632812 223.74804688 C-103.32600992 219.33091737 -99.06676599 214.84635157 -94.99975586 210.11108398 C-93.02388191 207.8238563 -90.94698814 205.63761461 -88.875 203.4375 C-68.96819464 181.5400141 -53.75175483 156.19772603 -41.44433594 129.41503906 C-40.67114893 127.74473124 -39.87406442 126.08550429 -39.0703125 124.4296875 C-28.29718434 101.96806734 -23.31149249 77.76260148 -19.90234375 53.26123047 C-19.56333204 50.82931513 -19.20767319 48.40092221 -18.84375 45.97265625 C-18.02487831 40.13819544 -17.47069373 34.46078852 -17.3359375 28.57421875 C-17.30910889 27.55030029 -17.28228027 26.52638184 -17.25463867 25.47143555 C-17.21105915 23.46154777 -17.18911439 21.45103094 -17.19262695 19.44067383 C-17.0624298 12.88362696 -15.88142875 8.37336947 -11.5 3.375 C-7.75233159 0.29655809 -4.78742444 -0.03355671 0 0 Z " fill="#292929" transform="translate(945.5,322.625)"/>
<path d="M0 0 C9.33953957 6.68757154 17.2323647 15.63994252 19.3125 27.25 C20.61119153 41.88568892 18.4082806 53.36533276 9.3125 65.25 C2.79703816 72.41568104 -5.52761095 76.83526133 -15.2265625 77.48828125 C-28.07526872 77.83911528 -37.07992999 75.26633493 -46.6875 66.25 C-52.82947058 59.66134065 -58.12997017 50.35632058 -58.6875 41.25 C-58.749375 40.40179687 -58.81125 39.55359375 -58.875 38.6796875 C-59.3937486 26.262143 -55.7840314 15.68451752 -47.6875 6.25 C-35.06890576 -7.26141931 -15.62910341 -9.87379168 0 0 Z " fill="#464646" transform="translate(1024.6875,868.75)"/>
<path d="M0 0 C9.20273783 6.64282132 15.8802477 14.85048784 18.3125 26.25 C19.5292699 38.81661468 18.82195541 50.46301381 11.328125 61.0546875 C5.0801172 68.52127838 -2.91478058 74.59360688 -12.6875 76.25 C-24.05095935 77.21839068 -33.82936004 75.35205251 -42.78125 67.99609375 C-51.30621607 60.18736459 -57.36512721 52.25088339 -58.09375 40.3515625 C-58.14331347 38.58896144 -58.17450267 36.82574987 -58.1875 35.0625 C-58.19394531 34.23129639 -58.20039062 33.40009277 -58.20703125 32.54370117 C-57.98720177 21.8872559 -54.15676042 12.99102491 -46.80078125 5.26953125 C-33.59795406 -6.89574567 -15.49026267 -9.80263661 0 0 Z " fill="#464646" transform="translate(999.6875,777.75)"/>
<path d="M0 0 C7.53038899 5.29006213 13.35279583 12.12318711 16.78515625 20.6796875 C17.14222656 21.56011719 17.49929688 22.44054687 17.8671875 23.34765625 C20.74737753 33.80213324 20.12128234 47.1879942 14.78515625 56.6796875 C9.47217266 65.11320828 2.30867554 71.50918736 -7.109375 74.984375 C-15.99369237 76.97356807 -27.19599471 77.48129607 -35.3359375 72.94140625 C-35.95597656 72.52503906 -36.57601562 72.10867188 -37.21484375 71.6796875 C-37.90707031 71.23238281 -38.59929688 70.78507812 -39.3125 70.32421875 C-48.68457458 63.79004339 -54.76565396 54.94754234 -57.21484375 43.6796875 C-58.04389013 29.96644488 -57.4089473 18.69044416 -48.1875 7.74609375 C-35.01808106 -6.04919857 -16.85453514 -10.0473243 0 0 Z " fill="#464646" transform="translate(1019.21484375,964.3203125)"/>
<path d="M0 0 C1.15628906 0.60134766 1.15628906 0.60134766 2.3359375 1.21484375 C11.67564944 6.71347962 17.40630212 15.68433233 20.375 25.96875 C22.63104331 36.91056007 20.71135262 47.24970453 15.33984375 57.01953125 C9.65661067 65.5502158 1.9605269 71.34303563 -8 74 C-20.82977679 75.1541431 -30.84902454 73.36180947 -40.96484375 64.9765625 C-44.35206872 61.6868584 -46.74044263 58.12764128 -49 54 C-49.41378906 53.29746094 -49.82757812 52.59492187 -50.25390625 51.87109375 C-54.67470108 43.01410062 -54.39407647 31.35166302 -52.3046875 21.83203125 C-48.9563868 12.75785498 -42.29578457 4.33996707 -33.6953125 -0.22265625 C-22.47172366 -5.3560682 -11.09371496 -5.91788474 0 0 Z " fill="#464646" transform="translate(946,698)"/>
<path d="M0 0 C8.22061173 6.05145481 13.91053784 14.99516356 16 25 C17.53923255 37.55888105 15.44152782 47.82188007 8.1875 58.375 C1.63282647 66.39366152 -6.92299082 71.16440133 -17.2421875 72.3828125 C-28.31093013 72.773474 -36.79781459 69.35185085 -45 62 C-52.95275719 54.34805632 -56.9737531 45.090272 -57.34399414 34.12524414 C-57.52321733 21.4794251 -54.42087911 12.48754753 -45.4765625 3.19921875 C-32.33502475 -8.47063259 -14.63868886 -9.91066513 0 0 Z " fill="#464646" transform="translate(989,1056)"/>
<path d="M0 0 C1.44567526 0.89211755 2.86727514 1.8256248 4.25 2.8125 C5.301875 3.51375 6.35375 4.215 7.4375 4.9375 C14.10773802 10.92361104 19.09492597 20.03247019 19.5859375 28.984375 C19.83464308 41.56997057 18.14969274 51.29903535 9.25 60.8125 C0.80508866 68.39744074 -7.35648657 70.66415221 -18.44140625 70.2890625 C-27.06679384 69.60846105 -34.55013031 65.0813801 -40.2890625 58.7265625 C-48.31344815 48.21332996 -49.63162247 37.79893885 -48.75 24.8125 C-47.20408303 15.87476157 -41.64989797 8.67400357 -34.625 3.1328125 C-24.97432887 -3.66286842 -10.85619085 -5.20570001 0 0 Z " fill="#464646" transform="translate(877.75,634.1875)"/>
<path d="M0 0 C7.80616904 4.61082516 13.62438881 11.77511984 16.52734375 20.44921875 C18.66865523 32.00522201 17.6970996 43.41329229 11.45703125 53.4921875 C7.75478864 58.66007764 3.71168571 62.21135345 -2 65 C-2.73476563 65.36609375 -3.46953125 65.7321875 -4.2265625 66.109375 C-11.7688163 68.53139453 -23.57239859 68.30835641 -30.953125 65.21875 C-40.96551212 59.25717599 -46.36781651 50.89655047 -50 40 C-51.4100919 27.20362221 -50.22669007 17.08520105 -42.20703125 6.671875 C-31.34081846 -5.42658872 -14.16657722 -8.04862175 0 0 Z " fill="#464646" transform="translate(935,1136)"/>
<path d="M0 0 C5.64862948 3.95404063 9.3359267 9.47912933 11.25 16.09375 C12.58502971 25.29062131 11.86877782 33.27314747 6.3046875 41.0859375 C1.4728724 46.32227666 -4.06164946 49.44077176 -11.1484375 50.34765625 C-18.90257637 50.65039971 -24.17053664 49.31351989 -30.125 44.35546875 C-37.16420656 37.74154758 -39.07015259 31.17980421 -39.5625 21.71875 C-39.49128282 14.25111949 -36.49459502 8.76154923 -31.8125 3.09375 C-21.49124233 -5.26155383 -11.72644128 -6.3418509 0 0 Z " fill="#474747" transform="translate(721.1875,546.03125)"/>
<path d="M0 0 C6.74000229 4.65919622 10.83552044 10.54407319 12.328125 18.609375 C13.64239165 27.51420211 11.22371608 34.15421689 6.328125 41.609375 C4.40605136 43.83208067 2.85271542 44.97891036 0.328125 46.609375 C-0.55875 47.2075 -1.445625 47.805625 -2.359375 48.421875 C-9.01247741 50.80694945 -16.36127802 50.52268263 -22.8359375 47.62890625 C-30.6705243 43.27821017 -34.67605903 37.01253255 -37.671875 28.609375 C-39.02453098 20.99236962 -37.37327054 13.54098353 -33.0078125 7.1875 C-24.16947447 -3.58752565 -12.49242977 -6.99261792 0 0 Z " fill="#292929" transform="translate(803.671875,1278.390625)"/>
<path d="M0 0 C5.07324524 2.87419597 8.86522114 6.57661171 10.7421875 12.1640625 C11.62418459 19.58471107 11.60018348 25.62224324 7.7421875 32.1640625 C4.01781118 36.47649824 1.16794261 38.66434778 -4.48046875 39.48828125 C-10.55880471 39.91104032 -14.49599393 38.68017865 -19.33984375 34.9765625 C-24.63291302 29.97455814 -25.50813091 25.22686585 -25.7578125 18.0390625 C-25.55150025 11.5952432 -24.48464125 8.23081359 -19.76171875 3.7421875 C-14.11813133 -1.26807964 -7.18288636 -2.65940775 0 0 Z " fill="#474747" transform="translate(638.2578125,497.8359375)"/>
<path d="M0 0 C5.76027762 3.14580315 8.82874173 5.89932234 11.48046875 11.89453125 C11.97546875 12.88453125 11.97546875 12.88453125 12.48046875 13.89453125 C13.30040433 20.37336651 12.37524532 25.60162976 8.48046875 30.89453125 C5.21033964 34.66281271 2.25358675 36.61308395 -2.71875 37.40234375 C-7.58312348 37.56874193 -11.47278436 37.30575324 -16.01953125 35.51953125 C-20.99209128 30.29834321 -23.76944566 24.57763444 -24.20703125 17.33203125 C-23.89295095 11.33903955 -21.68716391 7.15949716 -17.51953125 2.89453125 C-12.12387454 -1.13858588 -6.40467403 -2.81011279 0 0 Z " fill="#2A2A2A" transform="translate(737.51953125,1354.10546875)"/>
<path d="M0 0 C3.53684081 2.99862591 5.78275426 5.08823745 6.3125 9.75 C5.91753151 13.85767229 4.5942368 15.82926614 2 19 C-0.65863745 21.10857453 -1.98701207 21.00023614 -5.4375 20.9375 C-9.85959493 19.77379081 -11.43869711 18.80314671 -14 15 C-14.92396176 10.06409904 -14.76107098 6.28594751 -12.1875 1.9375 C-8.17472525 -1.61667192 -5.0207052 -1.21189436 0 0 Z " fill="#4A4A4A" transform="translate(640,250)"/>
<path d="M0 0 C2.95667822 2.21750867 4.45637398 4.56489454 5.07421875 8.2421875 C5.28570724 12.10732203 5.00755672 13.90899447 2.875 17.25 C-0.3801946 20.40945358 -2.67413238 20.64671243 -7.2109375 20.60546875 C-10.38134567 20.14995033 -12.0692402 18.55934343 -14.25 16.3125 C-15.97869779 12.85510443 -15.73966895 9.09274432 -15.25 5.3125 C-11.4395519 -0.78421696 -7.01160567 -2.14243506 0 0 Z " fill="#494949" transform="translate(878.25,269.6875)"/>
<path d="M0 0 C2.8100346 1.79363911 4.50940468 3.01880935 6 6 C6.55112923 10.59876684 6.61753151 13.97787887 4.1875 18 C1.35137661 20.5930271 -0.5759293 20.95288103 -4.375 21.375 C-8 21 -8 21 -10.875 18.6875 C-14.17167889 14.51817081 -14.45016024 11.22185879 -14 6 C-10.26747896 0.27680107 -6.74763808 -0.96948823 0 0 Z " fill="#494949" transform="translate(570,362)"/>
<path d="M0 0 C3.25304353 1.34364841 4.57754673 2.25567757 6.3125 5.3125 C7.41124284 9.60758564 7.60720111 12.66415755 5.75 16.75 C3.84757178 19.19597914 2.94413861 20.10040209 0 21 C-4.19312043 21.45743132 -6.27221841 21.45881883 -9.875 19.1875 C-12.7663051 16.21115651 -13.19701475 13.63651368 -13.375 9.625 C-13.31662847 6.04682504 -13.0462724 5.07085462 -11 1.9375 C-7.14120521 -0.5546383 -4.46837842 -0.82312234 0 0 Z " fill="#484848" transform="translate(570,439)"/>
<path d="M0 0 C2.6258382 1.78870171 3.34201385 3.11189509 5 6 C5.71773857 10.46592888 5.32766948 12.41019494 3.125 16.375 C0.99133615 19.0107024 0.26925329 19.80300391 -2.98828125 20.30859375 C-7.52887729 20.56042513 -9.386868 20.48800302 -13.0625 17.5625 C-15.34577761 14.21686406 -15.6553851 11.10661711 -15.43359375 7.12109375 C-14.78656435 3.95589587 -13.31896482 2.18255512 -11 0 C-7.46077805 -1.76961098 -3.72473277 -1.03393444 0 0 Z " fill="#494949" transform="translate(698,211)"/>
<path d="M0 0 C2.87472735 1.24988145 4.44101438 2.25468584 6.3125 4.75 C7.32815881 8.0739743 7.41796486 10.53686262 7 14 C5.21523759 16.97239241 3.14791945 19.42604027 0 21 C-4.14135035 21.39069343 -6.31186812 21.43382227 -9.875 19.1875 C-12.7663051 16.21115651 -13.19701475 13.63651368 -13.375 9.625 C-13.31662847 6.04682504 -13.0462724 5.07085462 -11 1.9375 C-7.14655866 -0.55118086 -4.46365595 -0.83128815 0 0 Z " fill="#484848" transform="translate(598,299)"/>
<path d="M0 0 C3.44996778 0.79999253 5.06552996 2.75592995 7.15625 5.5 C8.73080739 8.64911479 8.50424118 11.02008816 8.15625 14.5 C6.38344439 17.47672584 4.30016985 19.92804007 1.15625 21.5 C-3.47929388 21.91204834 -6.14791098 21.37454146 -9.84375 18.5 C-12.39378188 14.30363175 -12.64461578 10.288155 -11.84375 5.5 C-8.72846734 0.57584354 -5.5477266 -0.29587875 0 0 Z " fill="#494949" transform="translate(825.84375,227.5)"/>
<path d="M0 0 C2.8100346 1.79363911 4.50940468 3.01880935 6 6 C6.55512815 10.63213493 6.6364242 13.98172127 4.125 18 C1.38262878 20.58105526 0.48737793 20.95402095 -3.3125 21.3125 C-7.61926041 20.9475203 -9.02483986 20.06016472 -12 17 C-14.28582634 13.73453379 -14.40058025 10.92568648 -14 7 C-10.96991614 0.65125287 -6.89808132 -1.12951039 0 0 Z " fill="#484848" transform="translate(764,199)"/>
<path d="M0 0 C3.55247432 0.87379409 4.94828114 2.4927342 6.9375 5.4765625 C7.89785454 9.69192403 7.39725194 12.61222886 5.375 16.4140625 C2.11043819 19.17638403 0.20527316 19.62372709 -4.0625 19.4765625 C-7.09093096 17.75279041 -9.48273651 15.63608947 -11.0625 12.4765625 C-11.54852588 8.18333391 -11.52491608 6.15573611 -9.0625 2.5390625 C-5.72726514 0.24608853 -3.96242945 -0.28517485 0 0 Z " fill="#2B2B2B" transform="translate(691.0625,1446.5234375)"/>
</svg>
