<svg version="1.1" id="Layer_1" xmlns="http://www.w3.org/2000/svg" xmlns:xlink="http://www.w3.org/1999/xlink" x="0px" y="0px"
	 width="100%" viewBox="0 0 2004 1692" enable-background="new 0 0 2004 1692" xml:space="preserve">
<path fill="#F8F8F8" opacity="1.000000" stroke="none" 
	d="
M0.999999,879.000000 
	C1.000000,857.645752 1.000000,836.291565 1.383679,814.263916 
	C2.178132,805.665649 2.538189,797.737671 3.012267,789.816589 
	C3.632805,779.448425 3.902844,769.033752 5.115804,758.732361 
	C7.065508,742.173889 9.337564,725.637451 12.075268,709.191956 
	C15.125234,690.870605 18.221897,672.516113 22.412460,654.434326 
	C30.381939,620.047058 39.820423,586.015625 52.597054,553.069214 
	C61.889313,529.107849 71.778954,505.355438 82.192551,481.860107 
	C88.542801,467.532532 95.966599,453.629608 103.668571,439.964508 
	C114.790565,420.231415 126.093208,400.563385 138.242889,381.455170 
	C155.175217,354.825134 173.619888,329.202759 194.281555,305.299438 
	C210.130051,286.964417 225.895065,268.499847 242.730759,251.092468 
	C258.140717,235.159210 274.708099,220.312637 291.197388,205.466949 
	C303.150085,194.705688 315.381073,184.156296 328.253510,174.536865 
	C346.932098,160.578583 365.759827,146.678497 385.509644,134.330124 
	C411.484833,118.089462 438.226654,103.036400 465.022644,88.164284 
	C477.394440,81.297798 490.496826,75.639366 503.586761,70.200348 
	C523.858704,61.777134 544.228821,53.525677 564.875000,46.082661 
	C594.116882,35.540852 624.145874,27.650190 654.450623,20.663774 
	C685.048035,13.609896 715.990967,8.812801 747.107849,5.158851 
	C762.971375,3.296045 779.020264,3.017104 794.981567,1.964719 
	C796.004456,1.897273 796.994629,1.333092 798.000000,0.999994 
	C822.687561,1.000000 847.375122,1.000000 872.735840,1.383555 
	C880.498779,2.177935 887.590942,2.551663 894.677734,3.008538 
	C904.544128,3.644620 914.460266,3.907142 924.258545,5.113720 
	C940.148560,7.070464 956.035278,9.247608 971.786316,12.091093 
	C992.611206,15.850551 1013.573242,19.330647 1033.987427,24.766720 
	C1061.602173,32.120201 1089.021118,40.442837 1116.018921,49.806545 
	C1138.270630,57.524208 1160.046631,66.784088 1181.549072,76.439201 
	C1199.099243,84.319641 1216.173828,93.360153 1233.019165,102.681778 
	C1250.550659,112.383156 1268.115356,122.214172 1284.655273,133.472595 
	C1308.532471,149.725372 1331.911377,166.785065 1354.719360,184.508560 
	C1372.101196,198.015488 1388.680298,212.641113 1404.842773,227.604691 
	C1418.118530,239.895630 1430.465210,253.220535 1442.833374,266.451935 
	C1453.181152,277.522003 1463.402832,288.766876 1472.897827,300.564178 
	C1488.178345,319.550079 1503.507446,338.564667 1517.563110,358.452698 
	C1539.979736,390.171173 1559.756348,423.593414 1577.517334,458.152649 
	C1583.480347,469.755676 1588.955566,481.631683 1594.155884,493.599213 
	C1601.872070,511.356049 1610.033936,528.995483 1616.396729,547.246033 
	C1625.752563,574.082092 1634.400635,601.215637 1641.999390,628.597290 
	C1647.776855,649.416260 1651.588989,670.790039 1656.006836,691.973022 
	C1658.302490,702.980469 1660.389038,714.058838 1661.895874,725.196411 
	C1663.655029,738.196838 1664.857178,751.281494 1665.977173,764.357361 
	C1667.480469,781.905823 1669.533569,799.466919 1669.816650,817.047302 
	C1670.364014,851.027161 1670.788452,885.046021 1667.043091,918.937622 
	C1665.761353,930.535889 1665.362671,942.239990 1663.844482,953.801758 
	C1661.953979,968.197205 1659.634888,982.554565 1656.933716,996.820984 
	C1653.361206,1015.689270 1649.629883,1034.544678 1645.264282,1053.241577 
	C1638.307739,1083.035034 1629.439331,1112.318481 1618.430664,1140.854492 
	C1609.181641,1164.829346 1599.385986,1188.629883 1588.794922,1212.038330 
	C1580.992798,1229.282715 1572.000366,1246.043701 1562.661011,1262.522827 
	C1551.896606,1281.515991 1541.051147,1300.574219 1528.641479,1318.496582 
	C1511.818115,1342.793091 1494.058105,1366.503418 1475.598511,1389.584351 
	C1460.999146,1407.838745 1445.135986,1425.139160 1429.083374,1442.155029 
	C1417.730957,1454.188354 1405.395264,1465.343384 1393.008301,1476.338257 
	C1377.770874,1489.863770 1362.530273,1503.476685 1346.369019,1515.847290 
	C1326.170654,1531.308228 1305.271973,1545.892456 1284.247559,1560.227173 
	C1250.857544,1582.992798 1215.116699,1601.634888 1178.564697,1618.741699 
	C1170.158936,1622.675781 1161.668091,1626.463989 1153.049438,1629.901001 
	C1122.383423,1642.129517 1091.481567,1653.736938 1059.503418,1662.126953 
	C1040.792969,1667.036011 1022.067322,1672.047485 1003.110168,1675.812988 
	C982.312805,1679.943848 961.275940,1682.934204 940.277466,1685.964111 
	C925.847473,1688.046265 911.332092,1689.671387 896.803772,1690.891479 
	C886.251221,1691.777466 875.614014,1691.642212 865.017456,1692.039795 
	C864.001099,1692.077881 863.005310,1692.666748 862.000000,1693.000000 
	C844.645752,1693.000000 827.291565,1693.000000 809.263916,1692.616333 
	C800.000000,1691.822144 791.398438,1691.569214 782.821777,1690.962891 
	C770.848633,1690.116455 758.853699,1689.345825 746.941284,1687.928101 
	C730.061584,1685.918945 713.187439,1683.715454 696.423645,1680.919189 
	C678.755310,1677.972168 660.994629,1675.100952 643.679321,1670.628784 
	C618.523376,1664.131470 593.378479,1657.234375 568.876770,1648.656860 
	C541.734924,1639.155273 515.058289,1628.175781 488.685028,1616.679321 
	C470.910797,1608.931152 453.801117,1599.557617 436.785736,1590.199219 
	C420.945831,1581.487305 405.145325,1572.541626 390.185638,1562.429321 
	C367.343628,1546.988281 344.840332,1530.977295 322.949738,1514.219971 
	C305.493561,1500.857178 288.887848,1486.333008 272.440033,1471.721680 
	C262.068726,1462.508301 252.550217,1452.313843 242.893280,1442.323608 
	C233.230850,1432.327393 223.635651,1422.246338 214.440002,1411.823975 
	C202.916992,1398.763794 191.099030,1385.862305 180.726135,1371.912354 
	C164.675537,1350.326904 149.109543,1328.319336 134.519363,1305.727905 
	C121.265816,1285.206177 108.979080,1263.994507 97.405510,1242.474121 
	C87.833282,1224.675049 79.541847,1206.150513 71.363831,1187.646484 
	C57.679157,1156.682861 46.221558,1124.893921 36.609333,1092.396362 
	C26.018230,1056.589355 17.245043,1020.417297 11.997703,983.436218 
	C9.171219,963.516479 6.242610,943.595642 4.149727,923.592712 
	C2.724859,909.974487 2.688403,896.211975 1.963722,882.517578 
	C1.900949,881.331421 1.333187,880.171875 0.999999,879.000000 
M1013.395386,1400.121216 
	C1019.279419,1416.513184 1025.353027,1432.840820 1030.960083,1449.327026 
	C1033.413330,1456.540039 1034.489380,1464.222900 1036.966919,1471.425659 
	C1039.335938,1478.312988 1045.169312,1481.206909 1052.208130,1481.487915 
	C1058.715454,1481.747559 1065.156128,1478.033325 1066.976685,1471.724609 
	C1068.256348,1467.290527 1068.402832,1462.115356 1067.556885,1457.548706 
	C1061.856567,1426.772949 1051.532104,1397.573486 1036.671875,1369.994141 
	C1013.480347,1326.953003 980.404541,1292.677246 941.964539,1263.169922 
	C911.226501,1239.574951 877.393738,1220.899780 843.691101,1202.101929 
	C806.462830,1181.337891 769.373291,1160.430054 735.856934,1133.843506 
	C699.983948,1105.387573 668.034607,1073.354492 644.554932,1033.596436 
	C614.832397,983.267761 604.117615,929.600159 616.074646,871.945496 
	C623.786072,834.762390 639.809448,801.166931 660.589233,769.680176 
	C690.907776,723.739807 730.160583,686.241577 771.883118,650.885376 
	C804.515442,623.232361 837.324036,595.612183 867.950073,565.814636 
	C900.375488,534.266235 925.772522,497.111023 942.363647,454.572723 
	C956.842590,417.449982 964.772156,379.078827 963.066956,339.038605 
	C962.649170,329.227661 956.571533,323.477570 947.213989,323.487518 
	C937.416687,323.497925 930.640625,329.613983 929.968140,339.196381 
	C929.676941,343.345123 929.655762,347.512238 929.471313,351.669189 
	C926.651245,415.242310 904.497986,471.287445 863.827759,520.105835 
	C839.313416,549.531494 811.063599,575.094177 781.695190,599.507080 
	C749.044556,626.648438 715.599792,652.873718 686.276001,683.807861 
	C655.057190,716.741150 627.796570,752.450317 607.721985,793.351868 
	C589.002869,831.491699 577.650879,871.543945 577.236206,914.227600 
	C576.894409,949.414734 583.519592,983.311218 597.377930,1015.796692 
	C617.157104,1062.161255 647.791992,1100.489746 684.299072,1134.569946 
	C720.714355,1168.564453 762.157410,1195.310547 805.781616,1218.920410 
	C843.838440,1239.517212 881.513489,1260.727051 916.553894,1286.300781 
	C957.733765,1316.355469 991.176147,1352.954712 1013.395386,1400.121216 
M971.902100,885.493958 
	C967.349731,894.594116 966.122253,904.106079 968.044373,914.115173 
	C972.536377,937.506287 995.430725,952.317749 1017.257019,945.855347 
	C1034.071533,940.876953 1045.263184,924.602295 1045.153198,905.289185 
	C1045.047974,886.799866 1032.781372,870.545532 1015.170410,865.559326 
	C998.440979,860.822693 982.227966,868.092041 971.902100,885.493958 
M1019.248413,812.878967 
	C1019.169617,811.549805 1019.121887,810.217957 1019.007446,808.891846 
	C1016.829468,783.652588 991.386414,767.075134 967.922180,775.601440 
	C949.778748,782.194275 939.741272,800.529480 943.039062,821.054871 
	C947.237976,847.189148 974.698730,862.555603 997.573914,851.178101 
	C1012.814331,843.598083 1019.283142,830.374329 1019.248413,812.878967 
M1031.248779,1026.702026 
	C1038.174805,1017.772461 1039.901733,1007.523315 1038.990601,996.565247 
	C1037.010620,972.751526 1015.081238,955.984192 992.454712,961.026367 
	C973.648438,965.217163 961.146301,983.502625 962.849426,1004.326721 
	C964.184692,1020.652954 975.117371,1035.404297 990.051575,1039.754517 
	C1006.145020,1044.442383 1019.840149,1039.951050 1031.248779,1026.702026 
M950.905640,701.516724 
	C943.104797,696.357849 934.587952,694.010925 925.288818,695.546265 
	C903.785156,699.096619 891.085754,717.337708 894.015808,740.240173 
	C896.045166,756.102295 908.859924,769.803040 924.416504,772.742676 
	C939.779480,775.645752 955.230225,768.085327 963.022461,753.851929 
	C972.528320,736.488464 967.649109,714.534973 950.905640,701.516724 
M953.690735,1124.973267 
	C960.892578,1128.630615 968.513062,1130.043945 976.448608,1128.498657 
	C1004.027771,1123.128662 1015.692932,1087.858643 997.540527,1064.941406 
	C979.837524,1042.591553 946.784607,1047.199463 935.818970,1073.546021 
	C927.951233,1092.449463 935.041748,1113.524292 953.690735,1124.973267 
M897.705261,661.030640 
	C897.153198,659.287231 896.666870,657.519714 896.038879,655.804016 
	C890.594971,640.930420 875.993591,631.048950 861.824219,632.619812 
	C840.791565,634.951660 827.847961,650.924988 830.146973,672.628601 
	C831.684387,687.141907 839.234070,697.975220 853.124939,703.282593 
	C865.593323,708.046570 877.178894,705.455139 886.871155,696.411926 
	C896.873474,687.079468 900.213928,675.282837 897.705261,661.030640 
M949.821533,1152.811035 
	C941.791077,1137.291992 927.441589,1129.984253 912.075623,1133.587891 
	C893.591797,1137.922729 882.831421,1154.581299 886.117981,1174.659180 
	C888.384338,1188.504395 895.853821,1198.791260 909.671204,1202.949341 
	C923.066589,1206.980347 935.339294,1204.049316 944.621521,1193.363281 
	C954.907349,1181.521606 955.432434,1167.793823 949.821533,1152.811035 
M697.246338,594.492737 
	C714.942749,601.517822 731.549500,591.932251 733.503479,573.564819 
	C734.704956,562.270996 728.897278,550.928711 719.358276,545.939636 
	C710.331360,541.218323 699.089661,542.653625 691.466980,549.500732 
	C678.242798,561.379395 680.849670,584.078491 697.246338,594.492737 
M810.471069,1320.928589 
	C821.489685,1307.842285 817.170227,1288.583008 805.793457,1280.614014 
	C795.317200,1273.276245 781.298828,1275.262451 773.168579,1285.353638 
	C764.342285,1296.308350 765.619446,1312.854004 776.030884,1322.434692 
	C786.168518,1331.763428 799.748291,1331.364868 810.471069,1320.928589 
M622.530884,535.158020 
	C635.658936,541.900635 649.149719,535.067749 650.470642,520.721252 
	C651.255798,512.193237 648.513916,504.806580 640.721802,500.336304 
	C634.041443,496.503845 627.151123,496.994385 621.007935,501.548645 
	C613.955872,506.776764 611.740967,514.342712 614.191833,522.418945 
	C615.552307,526.902283 619.250854,530.676147 622.530884,535.158020 
M715.734009,1367.572021 
	C713.133362,1379.069824 718.615112,1389.816650 728.144775,1391.902954 
	C738.183777,1394.100830 747.437134,1388.548218 750.140198,1378.704590 
	C752.830383,1368.907959 747.127747,1358.257446 737.536987,1355.166260 
	C728.301575,1352.189575 720.003296,1356.659302 715.734009,1367.572021 
M834.162109,235.544312 
	C832.696350,230.785416 829.331665,228.356842 824.495728,228.469910 
	C819.954102,228.576080 816.541809,230.828949 815.094543,235.350281 
	C813.638794,239.898117 814.608521,244.025208 818.198608,247.152191 
	C821.624939,250.136627 825.708618,250.971329 829.741821,248.440735 
	C834.201233,245.642654 835.544739,241.384781 834.162109,235.544312 
M882.493225,275.219208 
	C878.779114,270.007202 874.239563,268.564728 869.228699,271.004150 
	C864.436096,273.337341 862.294495,278.892212 864.152039,284.171875 
	C865.912170,289.174469 870.760803,291.961273 876.047302,291.008728 
	C882.214294,289.897614 885.015137,283.684967 882.493225,275.219208 
M631.982239,251.254242 
	C626.624451,254.959259 625.030151,260.338593 627.635864,265.919067 
	C629.688599,270.315155 634.173950,272.512146 638.738953,271.357361 
	C644.453186,269.911865 647.742249,264.466431 646.364929,258.731720 
	C644.743896,251.981949 640.101196,249.358139 631.982239,251.254242 
M683.772827,220.664291 
	C683.789062,221.327271 683.756714,221.995590 683.829102,222.652390 
	C684.496704,228.714066 688.363342,232.617371 693.638733,232.578445 
	C699.052002,232.538513 703.615417,227.964386 703.857483,222.335663 
	C704.102722,216.635193 700.070251,211.772675 694.606567,211.180450 
	C689.188599,210.593201 685.118530,213.855484 683.772827,220.664291 
M565.028625,383.883575 
	C566.023804,383.921051 567.031250,384.078003 568.012085,383.976562 
	C574.245972,383.332092 577.936951,378.240784 577.110107,371.501892 
	C576.423950,365.909088 571.605347,362.231262 565.739258,362.901611 
	C561.011292,363.441895 558.235107,366.255219 557.285522,370.783295 
	C556.153198,376.183136 558.678528,380.688446 565.028625,383.883575 
M577.765991,448.102783 
	C575.333069,441.647614 571.603088,439.082764 565.930359,439.964325 
	C561.407898,440.667145 558.248230,444.115723 557.862732,448.769775 
	C557.295837,455.612854 561.272888,460.777832 567.281067,461.001526 
	C573.874023,461.246979 577.843079,456.727020 577.765991,448.102783 
M587.148621,315.987274 
	C591.090149,321.064423 595.834167,322.435730 600.489685,319.843597 
	C604.905212,317.385071 606.954041,311.907745 605.308960,306.959900 
	C603.568420,301.725006 599.203979,299.107635 593.660767,299.974365 
	C587.058838,301.006653 584.381958,306.988647 587.148621,315.987274 
M757.569641,200.662018 
	C756.841064,201.051407 756.040100,201.347137 755.395691,201.845398 
	C751.179321,205.105240 749.983276,210.398148 752.324707,215.208847 
	C754.549377,219.779755 759.675171,222.148026 764.396912,220.786697 
	C769.046387,219.446198 771.638794,215.145767 771.225708,209.458649 
	C770.720947,202.509888 766.378357,199.444595 757.569641,200.662018 
M682.387634,1461.820557 
	C687.138794,1467.588135 692.116516,1468.502319 696.256165,1464.367310 
	C699.654846,1460.972290 700.080688,1455.234985 697.239746,1451.114380 
	C694.856079,1447.656982 690.031128,1446.421265 686.168884,1448.278809 
	C681.818970,1450.371094 680.198303,1455.408081 682.387634,1461.820557 
z"/>
<path fill="#4C6971" opacity="1.000000" stroke="none" 
	d="
M862.468628,1693.000000 
	C863.005310,1692.666748 864.001099,1692.077881 865.017456,1692.039795 
	C875.614014,1691.642212 886.251221,1691.777466 896.803772,1690.891479 
	C911.332092,1689.671387 925.847473,1688.046265 940.277466,1685.964111 
	C961.275940,1682.934204 982.312805,1679.943848 1003.110168,1675.812988 
	C1022.067322,1672.047485 1040.792969,1667.036011 1059.503418,1662.126953 
	C1091.481567,1653.736938 1122.383423,1642.129517 1153.049438,1629.901001 
	C1161.668091,1626.463989 1170.158936,1622.675781 1178.564697,1618.741699 
	C1215.116699,1601.634888 1250.857544,1582.992798 1284.247559,1560.227173 
	C1305.271973,1545.892456 1326.170654,1531.308228 1346.369019,1515.847290 
	C1362.530273,1503.476685 1377.770874,1489.863770 1393.008301,1476.338257 
	C1405.395264,1465.343384 1417.730957,1454.188354 1429.083374,1442.155029 
	C1445.135986,1425.139160 1460.999146,1407.838745 1475.598511,1389.584351 
	C1494.058105,1366.503418 1511.818115,1342.793091 1528.641479,1318.496582 
	C1541.051147,1300.574219 1551.896606,1281.515991 1562.661011,1262.522827 
	C1572.000366,1246.043701 1580.992798,1229.282715 1588.794922,1212.038330 
	C1599.385986,1188.629883 1609.181641,1164.829346 1618.430664,1140.854492 
	C1629.439331,1112.318481 1638.307739,1083.035034 1645.264282,1053.241577 
	C1649.629883,1034.544678 1653.361206,1015.689270 1656.933716,996.820984 
	C1659.634888,982.554565 1661.953979,968.197205 1663.844482,953.801758 
	C1665.362671,942.239990 1665.761353,930.535889 1667.043091,918.937622 
	C1670.788452,885.046021 1670.364014,851.027161 1669.816650,817.047302 
	C1669.533569,799.466919 1667.480469,781.905823 1665.977173,764.357361 
	C1664.857178,751.281494 1663.655029,738.196838 1661.895874,725.196411 
	C1660.389038,714.058838 1658.302490,702.980469 1656.006836,691.973022 
	C1651.588989,670.790039 1647.776855,649.416260 1641.999390,628.597290 
	C1634.400635,601.215637 1625.752563,574.082092 1616.396729,547.246033 
	C1610.033936,528.995483 1601.872070,511.356049 1594.155884,493.599213 
	C1588.955566,481.631683 1583.480347,469.755676 1577.517334,458.152649 
	C1559.756348,423.593414 1539.979736,390.171173 1517.563110,358.452698 
	C1503.507446,338.564667 1488.178345,319.550079 1472.897827,300.564178 
	C1463.402832,288.766876 1453.181152,277.522003 1442.833374,266.451935 
	C1430.465210,253.220535 1418.118530,239.895630 1404.842773,227.604691 
	C1388.680298,212.641113 1372.101196,198.015488 1354.719360,184.508560 
	C1331.911377,166.785065 1308.532471,149.725372 1284.655273,133.472595 
	C1268.115356,122.214172 1250.550659,112.383156 1233.019165,102.681778 
	C1216.173828,93.360153 1199.099243,84.319641 1181.549072,76.439201 
	C1160.046631,66.784088 1138.270630,57.524208 1116.018921,49.806545 
	C1089.021118,40.442837 1061.602173,32.120201 1033.987427,24.766720 
	C1013.573242,19.330647 992.611206,15.850551 971.786316,12.091093 
	C956.035278,9.247608 940.148560,7.070464 924.258545,5.113720 
	C914.460266,3.907142 904.544128,3.644620 894.677734,3.008538 
	C887.590942,2.551663 880.498779,2.177935 873.204529,1.383555 
	C1250.291870,1.000000 1627.583740,1.000000 2004.937744,1.000000 
	C2004.937744,564.896545 2004.937744,1128.793091 2004.937744,1693.000000 
	C1624.312500,1693.000000 1243.624878,1693.000000 862.468628,1693.000000 
z"/>
<path fill="#4C6971" opacity="1.000000" stroke="none" 
	d="
M0.999999,879.468628 
	C1.333187,880.171875 1.900949,881.331421 1.963722,882.517578 
	C2.688403,896.211975 2.724859,909.974487 4.149727,923.592712 
	C6.242610,943.595642 9.171219,963.516479 11.997703,983.436218 
	C17.245043,1020.417297 26.018230,1056.589355 36.609333,1092.396362 
	C46.221558,1124.893921 57.679157,1156.682861 71.363831,1187.646484 
	C79.541847,1206.150513 87.833282,1224.675049 97.405510,1242.474121 
	C108.979080,1263.994507 121.265816,1285.206177 134.519363,1305.727905 
	C149.109543,1328.319336 164.675537,1350.326904 180.726135,1371.912354 
	C191.099030,1385.862305 202.916992,1398.763794 214.440002,1411.823975 
	C223.635651,1422.246338 233.230850,1432.327393 242.893280,1442.323608 
	C252.550217,1452.313843 262.068726,1462.508301 272.440033,1471.721680 
	C288.887848,1486.333008 305.493561,1500.857178 322.949738,1514.219971 
	C344.840332,1530.977295 367.343628,1546.988281 390.185638,1562.429321 
	C405.145325,1572.541626 420.945831,1581.487305 436.785736,1590.199219 
	C453.801117,1599.557617 470.910797,1608.931152 488.685028,1616.679321 
	C515.058289,1628.175781 541.734924,1639.155273 568.876770,1648.656860 
	C593.378479,1657.234375 618.523376,1664.131470 643.679321,1670.628784 
	C660.994629,1675.100952 678.755310,1677.972168 696.423645,1680.919189 
	C713.187439,1683.715454 730.061584,1685.918945 746.941284,1687.928101 
	C758.853699,1689.345825 770.848633,1690.116455 782.821777,1690.962891 
	C791.398438,1691.569214 800.000000,1691.822144 808.795227,1692.616333 
	C539.739319,1693.000000 270.478577,1693.000000 1.000000,1693.000000 
	C1.000000,1421.979126 1.000000,1150.958252 0.999999,879.468628 
z"/>
<path fill="#4C6971" opacity="1.000000" stroke="none" 
	d="
M797.531372,0.999994 
	C796.994629,1.333092 796.004456,1.897273 794.981567,1.964719 
	C779.020264,3.017104 762.971375,3.296045 747.107849,5.158851 
	C715.990967,8.812801 685.048035,13.609896 654.450623,20.663774 
	C624.145874,27.650190 594.116882,35.540852 564.875000,46.082661 
	C544.228821,53.525677 523.858704,61.777134 503.586761,70.200348 
	C490.496826,75.639366 477.394440,81.297798 465.022644,88.164284 
	C438.226654,103.036400 411.484833,118.089462 385.509644,134.330124 
	C365.759827,146.678497 346.932098,160.578583 328.253510,174.536865 
	C315.381073,184.156296 303.150085,194.705688 291.197388,205.466949 
	C274.708099,220.312637 258.140717,235.159210 242.730759,251.092468 
	C225.895065,268.499847 210.130051,286.964417 194.281555,305.299438 
	C173.619888,329.202759 155.175217,354.825134 138.242889,381.455170 
	C126.093208,400.563385 114.790565,420.231415 103.668571,439.964508 
	C95.966599,453.629608 88.542801,467.532532 82.192551,481.860107 
	C71.778954,505.355438 61.889313,529.107849 52.597054,553.069214 
	C39.820423,586.015625 30.381939,620.047058 22.412460,654.434326 
	C18.221897,672.516113 15.125234,690.870605 12.075268,709.191956 
	C9.337564,725.637451 7.065508,742.173889 5.115804,758.732361 
	C3.902844,769.033752 3.632805,779.448425 3.012267,789.816589 
	C2.538189,797.737671 2.178132,805.665649 1.383679,813.795288 
	C1.000000,543.073608 1.000000,272.147247 1.000000,1.000000 
	C266.354187,1.000000 531.708435,1.000000 797.531372,0.999994 
z"/>
<path fill="#353535" opacity="1.000000" stroke="none" 
	d="
M1013.228149,1399.781006 
	C991.176147,1352.954712 957.733765,1316.355469 916.553894,1286.300781 
	C881.513489,1260.727051 843.838440,1239.517212 805.781616,1218.920410 
	C762.157410,1195.310547 720.714355,1168.564453 684.299072,1134.569946 
	C647.791992,1100.489746 617.157104,1062.161255 597.377930,1015.796692 
	C583.519592,983.311218 576.894409,949.414734 577.236206,914.227600 
	C577.650879,871.543945 589.002869,831.491699 607.721985,793.351868 
	C627.796570,752.450317 655.057190,716.741150 686.276001,683.807861 
	C715.599792,652.873718 749.044556,626.648438 781.695190,599.507080 
	C811.063599,575.094177 839.313416,549.531494 863.827759,520.105835 
	C904.497986,471.287445 926.651245,415.242310 929.471313,351.669189 
	C929.655762,347.512238 929.676941,343.345123 929.968140,339.196381 
	C930.640625,329.613983 937.416687,323.497925 947.213989,323.487518 
	C956.571533,323.477570 962.649170,329.227661 963.066956,339.038605 
	C964.772156,379.078827 956.842590,417.449982 942.363647,454.572723 
	C925.772522,497.111023 900.375488,534.266235 867.950073,565.814636 
	C837.324036,595.612183 804.515442,623.232361 771.883118,650.885376 
	C730.160583,686.241577 690.907776,723.739807 660.589233,769.680176 
	C639.809448,801.166931 623.786072,834.762390 616.074646,871.945496 
	C604.117615,929.600159 614.832397,983.267761 644.554932,1033.596436 
	C668.034607,1073.354492 699.983948,1105.387573 735.856934,1133.843506 
	C769.373291,1160.430054 806.462830,1181.337891 843.691101,1202.101929 
	C877.393738,1220.899780 911.226501,1239.574951 941.964539,1263.169922 
	C980.404541,1292.677246 1013.480347,1326.953003 1036.671875,1369.994141 
	C1051.532104,1397.573486 1061.856567,1426.772949 1067.556885,1457.548706 
	C1068.402832,1462.115356 1068.256348,1467.290527 1066.976685,1471.724609 
	C1065.156128,1478.033325 1058.715454,1481.747559 1052.208130,1481.487915 
	C1045.169312,1481.206909 1039.335938,1478.312988 1036.966919,1471.425659 
	C1034.489380,1464.222900 1033.413330,1456.540039 1030.960083,1449.327026 
	C1025.353027,1432.840820 1019.279419,1416.513184 1013.228149,1399.781006 
z"/>
<path fill="#5C4FCB" opacity="1.000000" stroke="none" 
	d="
M972.057190,885.157166 
	C982.227966,868.092041 998.440979,860.822693 1015.170410,865.559326 
	C1032.781372,870.545532 1045.047974,886.799866 1045.153198,905.289185 
	C1045.263184,924.602295 1034.071533,940.876953 1017.257019,945.855347 
	C995.430725,952.317749 972.536377,937.506287 968.044373,914.115173 
	C966.122253,904.106079 967.349731,894.594116 972.057190,885.157166 
z"/>
<path fill="#5C4FCB" opacity="1.000000" stroke="none" 
	d="
M1019.324341,813.296021 
	C1019.283142,830.374329 1012.814331,843.598083 997.573914,851.178101 
	C974.698730,862.555603 947.237976,847.189148 943.039062,821.054871 
	C939.741272,800.529480 949.778748,782.194275 967.922180,775.601440 
	C991.386414,767.075134 1016.829468,783.652588 1019.007446,808.891846 
	C1019.121887,810.217957 1019.169617,811.549805 1019.324341,813.296021 
z"/>
<path fill="#5C4FCB" opacity="1.000000" stroke="none" 
	d="
M1031.041138,1026.993896 
	C1019.840149,1039.951050 1006.145020,1044.442383 990.051575,1039.754517 
	C975.117371,1035.404297 964.184692,1020.652954 962.849426,1004.326721 
	C961.146301,983.502625 973.648438,965.217163 992.454712,961.026367 
	C1015.081238,955.984192 1037.010620,972.751526 1038.990601,996.565247 
	C1039.901733,1007.523315 1038.174805,1017.772461 1031.041138,1026.993896 
z"/>
<path fill="#5C4FCB" opacity="1.000000" stroke="none" 
	d="
M951.195862,701.731079 
	C967.649109,714.534973 972.528320,736.488464 963.022461,753.851929 
	C955.230225,768.085327 939.779480,775.645752 924.416504,772.742676 
	C908.859924,769.803040 896.045166,756.102295 894.015808,740.240173 
	C891.085754,717.337708 903.785156,699.096619 925.288818,695.546265 
	C934.587952,694.010925 943.104797,696.357849 951.195862,701.731079 
z"/>
<path fill="#5C4FCB" opacity="1.000000" stroke="none" 
	d="
M953.352783,1124.815063 
	C935.041748,1113.524292 927.951233,1092.449463 935.818970,1073.546021 
	C946.784607,1047.199463 979.837524,1042.591553 997.540527,1064.941406 
	C1015.692932,1087.858643 1004.027771,1123.128662 976.448608,1128.498657 
	C968.513062,1130.043945 960.892578,1128.630615 953.352783,1124.815063 
z"/>
<path fill="#5C4FCB" opacity="1.000000" stroke="none" 
	d="
M897.793335,661.439514 
	C900.213928,675.282837 896.873474,687.079468 886.871155,696.411926 
	C877.178894,705.455139 865.593323,708.046570 853.124939,703.282593 
	C839.234070,697.975220 831.684387,687.141907 830.146973,672.628601 
	C827.847961,650.924988 840.791565,634.951660 861.824219,632.619812 
	C875.993591,631.048950 890.594971,640.930420 896.038879,655.804016 
	C896.666870,657.519714 897.153198,659.287231 897.793335,661.439514 
z"/>
<path fill="#5C4FCB" opacity="1.000000" stroke="none" 
	d="
M949.960571,1153.168457 
	C955.432434,1167.793823 954.907349,1181.521606 944.621521,1193.363281 
	C935.339294,1204.049316 923.066589,1206.980347 909.671204,1202.949341 
	C895.853821,1198.791260 888.384338,1188.504395 886.117981,1174.659180 
	C882.831421,1154.581299 893.591797,1137.922729 912.075623,1133.587891 
	C927.441589,1129.984253 941.791077,1137.291992 949.960571,1153.168457 
z"/>
<path fill="#5C4FCB" opacity="1.000000" stroke="none" 
	d="
M696.918579,594.304199 
	C680.849670,584.078491 678.242798,561.379395 691.466980,549.500732 
	C699.089661,542.653625 710.331360,541.218323 719.358276,545.939636 
	C728.897278,550.928711 734.704956,562.270996 733.503479,573.564819 
	C731.549500,591.932251 714.942749,601.517822 696.918579,594.304199 
z"/>
<path fill="#363636" opacity="1.000000" stroke="none" 
	d="
M810.216492,1321.183716 
	C799.748291,1331.364868 786.168518,1331.763428 776.030884,1322.434692 
	C765.619446,1312.854004 764.342285,1296.308350 773.168579,1285.353638 
	C781.298828,1275.262451 795.317200,1273.276245 805.793457,1280.614014 
	C817.170227,1288.583008 821.489685,1307.842285 810.216492,1321.183716 
z"/>
<path fill="#5C4FCB" opacity="1.000000" stroke="none" 
	d="
M622.213257,534.963867 
	C619.250854,530.676147 615.552307,526.902283 614.191833,522.418945 
	C611.740967,514.342712 613.955872,506.776764 621.007935,501.548645 
	C627.151123,496.994385 634.041443,496.503845 640.721802,500.336304 
	C648.513916,504.806580 651.255798,512.193237 650.470642,520.721252 
	C649.149719,535.067749 635.658936,541.900635 622.213257,534.963867 
z"/>
<path fill="#363636" opacity="1.000000" stroke="none" 
	d="
M715.847107,1367.180176 
	C720.003296,1356.659302 728.301575,1352.189575 737.536987,1355.166260 
	C747.127747,1358.257446 752.830383,1368.907959 750.140198,1378.704590 
	C747.437134,1388.548218 738.183777,1394.100830 728.144775,1391.902954 
	C718.615112,1389.816650 713.133362,1379.069824 715.847107,1367.180176 
z"/>
<path fill="#5E51CC" opacity="1.000000" stroke="none" 
	d="
M834.269531,235.922653 
	C835.544739,241.384781 834.201233,245.642654 829.741821,248.440735 
	C825.708618,250.971329 821.624939,250.136627 818.198608,247.152191 
	C814.608521,244.025208 813.638794,239.898117 815.094543,235.350281 
	C816.541809,230.828949 819.954102,228.576080 824.495728,228.469910 
	C829.331665,228.356842 832.696350,230.785416 834.269531,235.922653 
z"/>
<path fill="#5E51CC" opacity="1.000000" stroke="none" 
	d="
M882.673218,275.565796 
	C885.015137,283.684967 882.214294,289.897614 876.047302,291.008728 
	C870.760803,291.961273 865.912170,289.174469 864.152039,284.171875 
	C862.294495,278.892212 864.436096,273.337341 869.228699,271.004150 
	C874.239563,268.564728 878.779114,270.007202 882.673218,275.565796 
z"/>
<path fill="#5E51CC" opacity="1.000000" stroke="none" 
	d="
M632.348389,251.135620 
	C640.101196,249.358139 644.743896,251.981949 646.364929,258.731720 
	C647.742249,264.466431 644.453186,269.911865 638.738953,271.357361 
	C634.173950,272.512146 629.688599,270.315155 627.635864,265.919067 
	C625.030151,260.338593 626.624451,254.959259 632.348389,251.135620 
z"/>
<path fill="#5E51CC" opacity="1.000000" stroke="none" 
	d="
M683.801758,220.240982 
	C685.118530,213.855484 689.188599,210.593201 694.606567,211.180450 
	C700.070251,211.772675 704.102722,216.635193 703.857483,222.335663 
	C703.615417,227.964386 699.052002,232.538513 693.638733,232.578445 
	C688.363342,232.617371 684.496704,228.714066 683.829102,222.652390 
	C683.756714,221.995590 683.789062,221.327271 683.801758,220.240982 
z"/>
<path fill="#5E51CC" opacity="1.000000" stroke="none" 
	d="
M564.644653,383.786438 
	C558.678528,380.688446 556.153198,376.183136 557.285522,370.783295 
	C558.235107,366.255219 561.011292,363.441895 565.739258,362.901611 
	C571.605347,362.231262 576.423950,365.909088 577.110107,371.501892 
	C577.936951,378.240784 574.245972,383.332092 568.012085,383.976562 
	C567.031250,384.078003 566.023804,383.921051 564.644653,383.786438 
z"/>
<path fill="#5D51CC" opacity="1.000000" stroke="none" 
	d="
M577.837646,448.500366 
	C577.843079,456.727020 573.874023,461.246979 567.281067,461.001526 
	C561.272888,460.777832 557.295837,455.612854 557.862732,448.769775 
	C558.248230,444.115723 561.407898,440.667145 565.930359,439.964325 
	C571.603088,439.082764 575.333069,441.647614 577.837646,448.500366 
z"/>
<path fill="#5D51CC" opacity="1.000000" stroke="none" 
	d="
M586.986572,315.619324 
	C584.381958,306.988647 587.058838,301.006653 593.660767,299.974365 
	C599.203979,299.107635 603.568420,301.725006 605.308960,306.959900 
	C606.954041,311.907745 604.905212,317.385071 600.489685,319.843597 
	C595.834167,322.435730 591.090149,321.064423 586.986572,315.619324 
z"/>
<path fill="#5D51CC" opacity="1.000000" stroke="none" 
	d="
M757.937500,200.500305 
	C766.378357,199.444595 770.720947,202.509888 771.225708,209.458649 
	C771.638794,215.145767 769.046387,219.446198 764.396912,220.786697 
	C759.675171,222.148026 754.549377,219.779755 752.324707,215.208847 
	C749.983276,210.398148 751.179321,205.105240 755.395691,201.845398 
	C756.040100,201.347137 756.841064,201.051407 757.937500,200.500305 
z"/>
<path fill="#383838" opacity="1.000000" stroke="none" 
	d="
M682.212463,1461.469971 
	C680.198303,1455.408081 681.818970,1450.371094 686.168884,1448.278809 
	C690.031128,1446.421265 694.856079,1447.656982 697.239746,1451.114380 
	C700.080688,1455.234985 699.654846,1460.972290 696.256165,1464.367310 
	C692.116516,1468.502319 687.138794,1467.588135 682.212463,1461.469971 
z"/>
</svg>
