<?xml version="1.0" standalone="no"?>
<!DOCTYPE svg PUBLIC "-//W3C//DTD SVG 20010904//EN"
 "http://www.w3.org/TR/2001/REC-SVG-20010904/DTD/svg10.dtd">
<svg version="1.0" xmlns="http://www.w3.org/2000/svg"
 width="2004.000000pt" height="1692.000000pt" viewBox="0 0 2004.000000 1692.000000"
 preserveAspectRatio="xMidYMid meet">

<g transform="translate(0.000000,1692.000000) scale(0.100000,-0.100000)"
fill="#000000" stroke="none">
<path d="M8120 16913 c-722 -17 -1500 -144 -2191 -357 -2196 -676 -4019 -2235
-5044 -4311 -513 -1041 -798 -2133 -866 -3318 -13 -237 -7 -914 11 -1122 52
-613 147 -1147 300 -1685 908 -3188 3580 -5552 6810 -6024 1154 -169 2353 -91
3460 225 1537 437 2910 1307 3976 2519 1068 1214 1774 2734 2013 4330 69 463
86 717 86 1295 0 588 -17 841 -90 1312 -252 1627 -952 3114 -2054 4358 -153
173 -512 532 -688 687 -1353 1195 -3003 1908 -4776 2063 -190 16 -644 36 -767
33 -41 -1 -122 -3 -180 -5z m-455 -2005 c71 -63 32 -188 -59 -188 -39 0 -71
22 -92 62 -48 93 72 194 151 126z m-695 -103 c30 -16 60 -61 60 -90 0 -34 -32
-84 -63 -98 -66 -32 -137 17 -137 94 0 50 13 74 48 93 35 19 56 20 92 1z
m1327 -181 c32 -20 49 -85 34 -123 -19 -45 -48 -66 -91 -66 -44 0 -76 24 -96
71 -15 37 -9 70 20 103 39 43 83 48 133 15z m-1903 -208 c30 -13 66 -64 66
-96 0 -31 -34 -80 -66 -95 -39 -18 -67 -13 -101 18 -57 51 -46 143 19 172 41
18 42 18 82 1z m2395 -212 c74 -62 33 -184 -62 -184 -81 0 -127 95 -81 168 30
47 98 55 143 16z m-2777 -303 c28 -25 33 -36 33 -76 0 -40 -5 -51 -33 -76 -70
-63 -162 -14 -162 86 0 27 8 44 29 66 40 40 89 40 133 0z m3532 -229 c46 -27
66 -63 77 -138 17 -115 -8 -406 -57 -641 -119 -580 -383 -1069 -857 -1585
-139 -152 -463 -442 -877 -786 -403 -336 -607 -523 -802 -739 -490 -540 -785
-1078 -883 -1610 -79 -427 -38 -847 119 -1232 143 -350 341 -644 635 -945 371
-379 734 -645 1356 -991 924 -514 1222 -720 1596 -1102 364 -372 592 -757 742
-1253 73 -241 94 -388 63 -448 -34 -66 -113 -102 -179 -82 -96 29 -113 56
-167 275 -54 221 -113 382 -210 580 -209 427 -517 781 -955 1100 -272 198
-548 367 -1065 650 -379 208 -611 353 -855 536 -414 309 -756 663 -1001 1034
-459 694 -577 1451 -348 2215 178 589 546 1158 1105 1705 208 204 280 268 569
505 509 419 760 648 983 898 472 529 703 1071 747 1752 13 210 16 223 46 260
57 68 143 84 218 42z m-3813 -401 c50 -51 36 -137 -28 -170 -80 -41 -169 52
-133 140 28 66 109 81 161 30z m6 -776 c32 -32 35 -39 30 -78 -7 -49 -52 -97
-92 -97 -93 0 -141 115 -76 181 43 43 92 40 138 -6z m651 -566 c50 -25 86 -73
102 -140 36 -145 -110 -281 -243 -225 -51 21 -96 75 -113 134 -29 97 13 193
101 233 53 24 99 24 153 -2z m788 -457 c91 -47 148 -144 147 -252 0 -75 -17
-121 -63 -174 -63 -71 -165 -101 -257 -75 -34 9 -63 28 -100 64 -147 147 -90
392 106 456 39 13 124 3 167 -19z m1567 -889 c64 -20 158 -108 191 -176 38
-82 50 -159 36 -231 -53 -271 -341 -388 -545 -221 -161 131 -180 389 -40 543
20 23 60 53 89 67 94 46 167 51 269 18z m693 -637 c149 -67 249 -244 229 -405
-17 -133 -99 -252 -213 -308 -50 -25 -68 -28 -152 -28 -83 0 -102 3 -151 27
-227 112 -294 418 -135 613 103 126 275 167 422 101z m498 -776 c65 -25 152
-100 189 -163 126 -214 45 -495 -173 -596 -47 -22 -69 -26 -145 -25 -76 0 -99
4 -148 27 -164 75 -269 272 -238 448 44 252 283 395 515 309z m184 -890 c97
-23 193 -89 252 -174 80 -117 93 -290 31 -419 -39 -82 -110 -155 -188 -194
-52 -25 -68 -28 -158 -28 -89 0 -106 3 -156 28 -114 56 -206 181 -231 315 -50
271 197 530 450 472z m37 -989 c78 -39 147 -111 188 -199 25 -54 32 -83 35
-153 11 -221 -113 -381 -323 -420 -241 -44 -474 206 -433 466 41 267 305 418
533 306z m-348 -893 c43 -16 75 -38 124 -87 90 -90 113 -149 114 -286 0 -92
-3 -105 -31 -165 -44 -92 -93 -143 -172 -182 -60 -30 -76 -33 -152 -33 -71 0
-94 5 -140 26 -104 48 -172 126 -210 240 -30 89 -25 210 12 291 29 63 92 137
145 169 85 53 212 64 310 27z m-481 -831 c121 -62 194 -189 194 -336 -1 -199
-141 -342 -335 -344 -168 -1 -306 126 -335 309 -26 160 66 325 213 384 74 29
192 24 263 -13z m-1344 -1413 c95 -32 161 -121 175 -232 16 -143 -103 -282
-241 -282 -187 1 -312 221 -220 389 33 61 83 106 140 126 51 19 91 18 146 -1z
m-607 -783 c117 -53 157 -190 86 -288 -35 -48 -84 -73 -146 -73 -74 0 -129 38
-160 112 -50 122 34 263 160 267 11 0 38 -8 60 -18z m-450 -923 c32 -14 55
-56 55 -98 0 -40 -47 -90 -85 -90 -38 0 -95 59 -95 98 0 33 32 79 64 92 29 12
31 12 61 -2z"/>
</g>
</svg>
