<svg version="1.1" id="Layer_1" xmlns="http://www.w3.org/2000/svg" xmlns:xlink="http://www.w3.org/1999/xlink" x="0px" y="0px"
	 width="100%" viewBox="0 0 600 200" enable-background="new 0 0 600 200" xml:space="preserve">
<path fill="#343434" opacity="1.000000" stroke="none" 
	d="
M107.000000,201.000000 
	C71.676331,201.000000 36.352661,201.000000 1.021745,201.000000 
	C1.014497,134.361237 1.014497,67.722466 1.014497,1.041849 
	C200.917389,1.041849 400.834808,1.041849 600.876099,1.041849 
	C600.876099,67.565620 600.876099,134.131546 600.876099,201.000000 
	C438.978699,201.000000 276.957214,201.000000 114.393402,200.620972 
	C111.418968,193.338089 108.803459,186.492233 106.598228,179.516663 
	C103.394585,169.382919 99.376755,159.334259 97.702271,148.928116 
	C94.894516,131.479233 97.727890,114.989723 111.403519,102.016853 
	C122.136276,91.835625 135.396271,87.117271 149.634796,85.171028 
	C161.329224,83.572540 173.175125,83.117706 184.924179,81.875061 
	C202.455673,80.020836 217.784470,73.412346 229.406631,59.747646 
	C230.908997,57.981266 230.857834,54.893570 231.526291,52.417931 
	C229.269623,53.222683 226.664139,53.560772 224.830490,54.931438 
	C221.251358,57.606853 218.335587,61.175560 214.735779,63.816349 
	C202.096054,73.088715 187.366135,75.437729 172.188766,76.049294 
	C155.635696,76.716286 139.176285,78.158043 123.952652,85.355400 
	C104.313225,94.640457 91.996300,109.626991 90.166313,131.835587 
	C88.900574,147.196487 91.653992,161.984970 97.678955,176.235107 
	C101.111038,184.352631 103.913834,192.736221 107.000000,201.000000 
M174.775665,146.753464 
	C171.458557,143.577469 167.923904,143.520187 164.491638,146.379272 
	C161.363159,148.985275 159.924698,152.710159 162.145874,156.137482 
	C163.485153,158.204041 166.793564,160.156891 169.187088,160.121597 
	C173.405609,160.059418 175.964951,156.730270 176.448563,152.522751 
	C176.639481,150.861710 175.678406,149.068268 174.775665,146.753464 
M163.695312,165.691330 
	C162.848969,161.286438 160.244263,158.964172 155.707932,159.417496 
	C151.819595,159.806091 148.689575,163.717560 148.797287,167.871994 
	C148.895554,171.661743 150.794403,174.212677 154.652588,174.688782 
	C159.364395,175.270218 162.099335,172.738327 163.398666,168.408005 
	C163.586365,167.782455 163.610367,167.107803 163.695312,165.691330 
M170.564529,130.296951 
	C168.592667,133.624557 168.184952,137.214523 171.037354,139.924957 
	C172.582733,141.393417 176.137100,142.767136 177.499023,141.974258 
	C180.060654,140.482986 182.623474,137.648865 183.391144,134.876190 
	C183.936752,132.905487 182.164551,129.322800 180.317383,127.875694 
	C177.140717,125.387016 173.707321,126.854843 170.564529,130.296951 
M183.563339,109.903709 
	C178.810425,107.478195 174.966537,107.996803 172.662903,111.590797 
	C170.557648,114.875298 170.480240,118.374588 173.371735,121.132919 
	C176.104141,123.739487 179.491730,123.474098 182.529160,121.444298 
	C185.993622,119.129135 186.467819,115.130470 183.563339,109.903709 
M142.054947,170.401627 
	C141.070831,170.430405 140.038559,170.275955 139.110962,170.519745 
	C135.129837,171.566101 132.702362,175.158936 133.358551,179.134644 
	C133.969604,182.836838 136.075562,185.160797 140.024048,185.152298 
	C143.903214,185.143951 148.034729,181.309830 147.379242,177.386520 
	C146.969162,174.931946 144.387344,172.840225 142.054947,170.401627 
M170.373611,101.073677 
	C172.806839,104.501534 175.955994,105.199265 179.443253,102.995972 
	C182.870163,100.830811 183.940811,97.228729 182.045807,93.929222 
	C181.023361,92.148941 177.754089,90.434158 175.761597,90.695526 
	C171.832306,91.210953 169.625687,94.319794 169.579407,98.512184 
	C169.572372,99.149979 169.886780,99.791328 170.373611,101.073677 
M117.403778,188.928680 
	C120.179428,192.342270 123.337440,192.221817 126.489929,189.651077 
	C129.140625,187.489517 130.885284,184.312042 128.643204,181.437057 
	C127.137245,179.505997 123.698280,177.713287 121.437401,178.038223 
	C117.315994,178.630554 115.912102,182.293045 116.415894,186.403778 
	C116.494476,187.045059 116.815704,187.656631 117.403778,188.928680 
M167.620956,66.269516 
	C169.864838,63.772903 170.230499,60.980633 167.469131,58.966053 
	C166.268677,58.090263 163.007874,58.039356 162.300674,58.917175 
	C160.968704,60.570492 159.789780,63.512932 160.391449,65.297821 
	C161.414444,68.332649 164.384277,68.218758 167.620956,66.269516 
M161.682587,42.943146 
	C159.980179,43.091938 158.176300,42.971855 156.637009,43.552822 
	C156.173233,43.727863 155.959396,46.187424 156.514435,46.988159 
	C157.081512,47.806274 159.525574,48.482216 159.772812,48.161224 
	C160.806458,46.819229 161.323273,45.079151 161.682587,42.943146 
z"/>
<path fill="#3F3E45" opacity="1.000000" stroke="none" 
	d="
M107.437500,201.000000 
	C103.913834,192.736221 101.111038,184.352631 97.678955,176.235107 
	C91.653992,161.984970 88.900574,147.196487 90.166313,131.835587 
	C91.996300,109.626991 104.313225,94.640457 123.952652,85.355400 
	C139.176285,78.158043 155.635696,76.716286 172.188766,76.049294 
	C187.366135,75.437729 202.096054,73.088715 214.735779,63.816349 
	C218.335587,61.175560 221.251358,57.606853 224.830490,54.931438 
	C226.664139,53.560772 229.269623,53.222683 231.526291,52.417931 
	C230.857834,54.893570 230.908997,57.981266 229.406631,59.747646 
	C217.784470,73.412346 202.455673,80.020836 184.924179,81.875061 
	C173.175125,83.117706 161.329224,83.572540 149.634796,85.171028 
	C135.396271,87.117271 122.136276,91.835625 111.403519,102.016853 
	C97.727890,114.989723 94.894516,131.479233 97.702271,148.928116 
	C99.376755,159.334259 103.394585,169.382919 106.598228,179.516663 
	C108.803459,186.492233 111.418968,193.338089 113.925552,200.620972 
	C111.958336,201.000000 109.916664,201.000000 107.437500,201.000000 
z"/>
<path fill="#3F3E45" opacity="1.000000" stroke="none" 
	d="
M175.008774,147.044281 
	C175.678406,149.068268 176.639481,150.861710 176.448563,152.522751 
	C175.964951,156.730270 173.405609,160.059418 169.187088,160.121597 
	C166.793564,160.156891 163.485153,158.204041 162.145874,156.137482 
	C159.924698,152.710159 161.363159,148.985275 164.491638,146.379272 
	C167.923904,143.520187 171.458557,143.577469 175.008774,147.044281 
z"/>
<path fill="#3F3E45" opacity="1.000000" stroke="none" 
	d="
M163.702728,166.073608 
	C163.610367,167.107803 163.586365,167.782455 163.398666,168.408005 
	C162.099335,172.738327 159.364395,175.270218 154.652588,174.688782 
	C150.794403,174.212677 148.895554,171.661743 148.797287,167.871994 
	C148.689575,163.717560 151.819595,159.806091 155.707932,159.417496 
	C160.244263,158.964172 162.848969,161.286438 163.702728,166.073608 
z"/>
<path fill="#3F3E45" opacity="1.000000" stroke="none" 
	d="
M170.798309,130.003296 
	C173.707321,126.854843 177.140717,125.387016 180.317383,127.875694 
	C182.164551,129.322800 183.936752,132.905487 183.391144,134.876190 
	C182.623474,137.648865 180.060654,140.482986 177.499023,141.974258 
	C176.137100,142.767136 172.582733,141.393417 171.037354,139.924957 
	C168.184952,137.214523 168.592667,133.624557 170.798309,130.003296 
z"/>
<path fill="#3F3E45" opacity="1.000000" stroke="none" 
	d="
M183.829117,110.173218 
	C186.467819,115.130470 185.993622,119.129135 182.529160,121.444298 
	C179.491730,123.474098 176.104141,123.739487 173.371735,121.132919 
	C170.480240,118.374588 170.557648,114.875298 172.662903,111.590797 
	C174.966537,107.996803 178.810425,107.478195 183.829117,110.173218 
z"/>
<path fill="#3F3E45" opacity="1.000000" stroke="none" 
	d="
M142.417480,170.493652 
	C144.387344,172.840225 146.969162,174.931946 147.379242,177.386520 
	C148.034729,181.309830 143.903214,185.143951 140.024048,185.152298 
	C136.075562,185.160797 133.969604,182.836838 133.358551,179.134644 
	C132.702362,175.158936 135.129837,171.566101 139.110962,170.519745 
	C140.038559,170.275955 141.070831,170.430405 142.417480,170.493652 
z"/>
<path fill="#3F3E45" opacity="1.000000" stroke="none" 
	d="
M170.213074,100.752350 
	C169.886780,99.791328 169.572372,99.149979 169.579407,98.512184 
	C169.625687,94.319794 171.832306,91.210953 175.761597,90.695526 
	C177.754089,90.434158 181.023361,92.148941 182.045807,93.929222 
	C183.940811,97.228729 182.870163,100.830811 179.443253,102.995972 
	C175.955994,105.199265 172.806839,104.501534 170.213074,100.752350 
z"/>
<path fill="#3F3E45" opacity="1.000000" stroke="none" 
	d="
M117.214249,188.605316 
	C116.815704,187.656631 116.494476,187.045059 116.415894,186.403778 
	C115.912102,182.293045 117.315994,178.630554 121.437401,178.038223 
	C123.698280,177.713287 127.137245,179.505997 128.643204,181.437057 
	C130.885284,184.312042 129.140625,187.489517 126.489929,189.651077 
	C123.337440,192.221817 120.179428,192.342270 117.214249,188.605316 
z"/>
<path fill="#3F3E45" opacity="1.000000" stroke="none" 
	d="
M167.342209,66.493256 
	C164.384277,68.218758 161.414444,68.332649 160.391449,65.297821 
	C159.789780,63.512932 160.968704,60.570492 162.300674,58.917175 
	C163.007874,58.039356 166.268677,58.090263 167.469131,58.966053 
	C170.230499,60.980633 169.864838,63.772903 167.342209,66.493256 
z"/>
<path fill="#3F3E45" opacity="1.000000" stroke="none" 
	d="
M161.856049,43.214058 
	C161.323273,45.079151 160.806458,46.819229 159.772812,48.161224 
	C159.525574,48.482216 157.081512,47.806274 156.514435,46.988159 
	C155.959396,46.187424 156.173233,43.727863 156.637009,43.552822 
	C158.176300,42.971855 159.980179,43.091938 161.856049,43.214058 
z"/>
</svg>